<?xml version="1.0" standalone="no"?>
<!DOCTYPE svg PUBLIC "-//W3C//DTD SVG 20010904//EN"
 "http://www.w3.org/TR/2001/REC-SVG-20010904/DTD/svg10.dtd">
<svg version="1.0" xmlns="http://www.w3.org/2000/svg"
 width="3840.000000pt" height="2160.000000pt" viewBox="0 0 3840.000000 2160.000000"
 preserveAspectRatio="xMidYMid meet">

<g transform="translate(0.000000,2160.000000) scale(0.100000,-0.100000)"
fill="#000000" stroke="none">
<path d="M0 13010 l0 -8590 160 0 c136 0 160 2 160 15 0 11 12 15 44 15 26 0
48 6 56 15 10 12 10 15 -4 15 -9 0 -16 5 -16 10 0 6 18 10 41 10 52 0 75 13
96 53 l17 32 6 -30 6 -30 23 37 c24 40 51 57 51 32 0 -24 37 1 57 39 9 18 18
26 20 20 7 -19 23 -16 47 7 37 35 73 72 92 93 17 20 18 20 24 2 6 -18 9 -17
33 7 15 15 27 32 27 37 0 6 13 17 30 26 16 8 37 30 47 48 l17 32 6 -30 6 -30
22 36 c12 20 33 41 47 47 13 6 31 24 39 40 18 36 43 48 48 24 3 -14 8 -12 33
12 27 27 28 30 10 36 -17 6 -17 8 5 30 22 22 24 22 30 5 6 -18 9 -17 32 9 14
16 32 35 41 43 8 9 26 27 40 40 120 121 127 126 127 97 0 -14 2 -15 17 -3 15
13 15 14 0 17 -10 2 -17 6 -17 8 0 14 73 74 90 74 11 0 23 7 27 15 3 9 18 22
34 31 16 8 35 27 44 43 8 16 24 33 36 36 11 4 29 20 39 37 10 16 33 39 51 51
27 16 30 22 17 25 -24 5 -23 7 17 47 39 39 45 42 45 19 0 -14 2 -15 17 -3 15
13 15 14 0 17 -10 2 -17 5 -17 8 0 2 72 76 160 164 93 92 160 167 160 178 0
25 31 52 58 52 16 0 22 6 22 24 0 13 7 29 15 36 9 8 15 30 15 56 0 40 2 44 25
44 16 0 25 -6 25 -16 0 -14 2 -15 17 -3 15 13 15 14 0 17 -10 2 -17 6 -17 8 0
3 54 58 120 124 70 69 120 127 120 138 0 11 7 26 17 33 14 12 11 15 -28 19
l-44 5 27 26 c16 15 28 31 28 38 0 6 14 11 30 11 28 0 30 2 30 40 l0 40 40 0
40 0 0 40 c0 22 5 40 10 40 6 0 10 18 10 40 0 22 5 40 11 40 14 0 69 55 69 69
0 6 14 11 30 11 28 0 30 2 30 40 l0 40 50 0 c39 0 50 -3 50 -16 0 -14 2 -15
17 -3 15 13 15 14 0 17 -12 3 -17 14 -17 43 0 37 2 39 30 39 28 0 30 3 30 36
0 28 8 43 40 74 35 34 40 44 40 84 0 25 5 46 10 46 6 0 10 -7 10 -15 0 -11 11
-15 40 -15 l40 0 0 55 0 55 40 0 40 0 0 40 c0 38 2 40 30 40 28 0 30 2 30 40
0 48 17 54 22 7 l3 -32 37 37 c38 37 38 37 38 123 l0 85 40 0 c38 0 40 2 40
30 0 28 2 30 40 30 l40 0 0 40 0 40 40 0 40 0 0 40 c0 39 1 40 35 40 29 0 44
9 80 45 25 24 45 54 45 65 0 17 6 20 40 20 34 0 40 3 40 20 0 17 60 90 74 90
2 0 6 -7 8 -17 3 -15 4 -15 17 0 12 15 11 17 -3 17 -10 0 -16 9 -16 25 0 23 4
25 40 25 l40 0 0 55 0 55 40 0 40 0 0 40 c0 29 4 40 15 40 8 0 25 6 36 12 17
10 23 10 26 1 3 -8 22 -13 44 -13 39 0 39 0 39 40 l0 40 55 0 55 0 0 40 c0 36
3 40 24 40 15 0 26 -7 28 -17 3 -15 4 -15 17 0 12 15 11 17 -3 17 -12 0 -16
10 -16 40 l0 40 41 0 41 0 -4 49 c-1 27 0 47 5 44 4 -2 7 3 7 13 0 12 6 15 23
10 12 -3 26 -6 31 -6 4 0 6 -7 2 -15 -3 -8 -1 -15 4 -15 5 0 10 -15 12 -33 l3
-32 37 37 c30 29 38 45 38 73 0 34 1 35 39 35 39 0 40 1 43 37 3 35 5 37 41
41 28 3 37 0 37 -12 0 -26 76 -22 83 4 3 14 11 18 27 15 22 -4 50 15 50 34 0
6 18 11 41 11 l41 0 -4 74 c-2 41 0 72 4 70 5 -3 8 -12 8 -20 0 -20 47 -18 59
4 9 14 10 11 11 -15 0 -32 2 -33 40 -33 37 0 40 2 40 29 0 24 3 28 25 25 14
-1 32 4 39 12 8 8 33 14 55 14 l41 0 0 50 c0 47 -1 50 -32 58 -31 8 -26 10 72
37 58 16 114 28 125 27 11 0 22 3 25 8 3 5 46 16 95 25 50 8 110 19 135 25 86
18 373 32 520 24 98 -5 137 -10 120 -16 -17 -5 -8 -7 30 -4 30 2 93 -2 140 -9
47 -7 77 -13 68 -14 -10 0 -18 -6 -18 -12 0 -7 8 -9 20 -5 11 3 29 9 40 12 11
4 20 2 20 -4 0 -6 9 -8 20 -5 10 3 43 -2 72 -11 29 -8 94 -25 143 -37 50 -12
128 -35 175 -51 47 -16 99 -35 117 -40 18 -6 29 -16 26 -21 -3 -6 -1 -7 5 -3
7 4 26 0 44 -8 18 -8 44 -17 58 -21 14 -4 48 -17 75 -30 28 -12 68 -31 90 -41
29 -13 35 -19 22 -22 -10 -2 -24 2 -32 8 -8 7 -15 8 -15 3 0 -16 46 -33 58
-21 5 5 20 7 32 3 18 -6 20 -9 9 -17 -10 -7 -7 -7 9 -3 21 6 165 -63 387 -185
87 -48 99 -57 83 -62 -7 -3 2 -5 19 -5 18 0 41 -6 50 -14 10 -8 62 -41 115
-73 54 -32 95 -62 92 -67 -3 -5 1 -6 9 -3 8 3 20 -2 27 -11 7 -8 16 -15 21
-15 13 0 80 -42 75 -47 -2 -3 -26 6 -53 19 l-48 25 -1 -24 c-2 -19 1 -21 12
-13 7 7 19 8 25 4 9 -5 8 -9 -5 -14 -10 -3 12 -6 49 -6 36 1 69 -4 73 -10 4
-6 25 -23 47 -37 47 -32 38 -36 -11 -6 -25 15 -33 17 -28 6 5 -15 43 -30 74
-31 15 -1 120 -64 120 -72 0 -11 -29 -2 -48 16 -24 22 -40 25 -62 9 -12 -9
-12 -10 3 -5 25 8 65 -13 46 -24 -7 -5 6 -7 34 -5 42 2 55 -2 129 -51 45 -30
84 -54 87 -54 2 0 13 -8 23 -17 18 -16 18 -17 -4 -30 -15 -8 -18 -12 -7 -13 8
0 20 5 25 10 15 15 59 -4 59 -25 0 -10 7 -20 15 -22 13 -4 13 -3 0 6 -8 5 -11
13 -8 17 4 3 37 -14 73 -40 36 -25 69 -46 73 -46 4 0 18 -10 32 -21 14 -11 18
-18 10 -15 -8 2 -32 10 -52 17 -21 7 -38 18 -38 25 0 15 -28 28 -55 25 -17 -2
-17 0 -5 8 18 13 1 14 -19 2 -11 -7 -9 -10 7 -15 11 -4 24 -5 30 -4 5 2 18 -8
29 -21 20 -25 82 -51 122 -51 13 0 73 -31 135 -69 61 -37 146 -89 188 -114 95
-57 470 -258 517 -277 30 -12 32 -15 15 -22 -15 -7 -14 -7 5 -4 16 3 55 -9
108 -34 46 -22 88 -40 93 -40 5 0 7 -8 4 -17 -5 -14 -4 -15 4 -4 9 12 15 12
44 -1 52 -25 273 -104 383 -137 107 -33 227 -61 340 -81 39 -6 77 -14 85 -17
8 -3 33 -6 55 -8 22 -2 94 -8 160 -14 66 -6 176 -11 245 -12 89 -2 112 -4 80
-9 -42 -7 -43 -7 -10 -8 49 -2 86 8 68 19 -8 5 8 9 42 9 30 0 65 3 78 6 12 4
22 2 22 -4 0 -6 -10 -13 -22 -15 -18 -3 -16 -5 8 -6 16 0 35 -6 41 -12 9 -9
16 -7 29 6 16 16 16 17 -11 13 -16 -1 -30 2 -32 7 -2 7 33 16 84 23 125 18
326 59 408 83 170 50 275 84 390 126 80 29 78 28 205 84 53 24 110 42 130 42
19 0 26 2 16 5 -13 3 24 25 115 69 74 35 139 65 144 66 6 1 12 5 15 8 3 4 73
41 155 84 173 89 159 81 252 134 39 23 82 41 95 41 13 0 30 5 38 11 12 8 9 9
-10 4 -14 -4 3 10 38 30 35 19 68 32 74 29 7 -5 8 -2 3 6 -6 9 -1 10 16 5 18
-4 20 -4 10 4 -12 7 -7 13 25 28 21 10 44 22 49 26 6 5 37 24 70 42 220 122
350 194 420 229 44 23 81 44 83 49 5 9 29 9 35 0 2 -5 2 -2 0 5 -3 16 111 72
147 72 16 0 21 3 13 8 -13 8 84 62 112 62 8 0 15 3 15 8 0 17 57 33 84 22 37
-14 47 -11 13 4 -27 12 -26 13 65 55 51 24 138 61 193 83 55 22 109 44 120 48
11 5 40 18 65 28 150 65 485 158 725 202 254 46 338 56 615 69 477 24 957 -24
1580 -155 188 -40 448 -101 470 -111 8 -4 24 -8 35 -9 20 -3 226 -59 325 -88
30 -8 96 -27 145 -40 81 -22 482 -144 595 -181 136 -44 309 -98 415 -129 66
-19 147 -43 180 -54 212 -68 519 -158 655 -192 47 -11 96 -25 110 -29 14 -5
69 -19 122 -31 53 -13 95 -27 92 -32 -3 -4 2 -5 11 -2 8 4 48 -1 88 -10 39 -9
123 -27 185 -39 62 -13 109 -26 105 -31 -4 -4 0 -4 8 -1 9 3 45 1 80 -5 35 -6
80 -13 99 -16 19 -3 43 -12 54 -22 11 -9 16 -11 12 -4 -6 10 0 12 26 8 118
-19 245 -36 318 -42 47 -3 90 -9 95 -12 6 -4 35 -8 65 -9 30 -1 107 -6 170
-11 172 -13 649 -15 796 -2 263 22 571 67 679 100 17 5 84 23 150 40 134 34
261 78 439 151 93 38 122 47 129 37 6 -9 7 -8 3 4 -4 13 6 22 37 37 54 25 158
84 220 123 26 17 51 28 54 24 4 -3 1 -6 -5 -6 -7 0 -12 -5 -12 -11 0 -8 5 -8
15 1 8 7 13 16 10 20 -3 5 12 19 32 31 21 13 40 27 41 31 2 4 8 8 13 8 5 0 17
6 26 14 10 8 47 36 83 63 36 26 90 69 120 95 30 27 60 46 68 43 7 -3 10 0 6 6
-3 6 4 21 17 35 26 28 41 31 32 7 -6 -16 -5 -16 11 -4 12 10 14 16 5 22 -8 5
-6 13 9 29 11 12 25 19 31 16 6 -4 9 -1 5 7 -3 8 0 18 7 23 7 4 15 2 17 -4 2
-7 8 -9 14 -6 6 4 5 10 -3 15 -11 7 -11 11 -1 21 10 10 15 10 23 -2 9 -12 10
-11 5 4 -5 14 5 31 35 62 23 24 46 41 51 38 4 -3 5 2 2 10 -3 9 -2 16 4 16 6
0 12 -5 14 -11 2 -7 10 -4 18 7 14 16 13 17 -2 11 -10 -3 -18 -4 -18 -1 0 5
48 64 136 168 13 15 24 30 24 33 0 3 23 37 51 75 39 52 54 66 61 56 7 -9 8 -8
4 6 -4 12 17 55 67 135 41 64 85 136 98 161 13 25 26 47 30 50 3 3 18 30 33
60 16 30 32 60 37 66 5 6 39 70 75 143 36 72 70 129 75 126 5 -4 6 0 4 8 -3 7
12 49 33 93 22 43 42 89 46 102 4 12 12 22 17 22 5 0 9 8 9 18 0 10 6 26 14
37 7 11 17 31 21 45 4 14 25 63 46 108 22 46 39 86 39 88 0 2 16 37 35 78 19
41 35 78 35 82 0 3 16 43 36 88 20 44 45 100 55 123 11 23 19 47 19 52 0 6 5
11 10 11 6 0 9 3 8 8 -1 7 13 47 32 87 5 11 23 54 41 95 38 89 75 172 134 295
23 50 50 107 60 127 9 21 21 35 26 32 5 -3 6 1 3 9 -4 12 133 298 152 316 11
10 -7 -41 -33 -97 -14 -29 -23 -56 -19 -59 4 -4 9 3 13 15 3 12 9 22 14 22 5
0 9 9 9 21 0 13 5 19 13 16 9 -3 12 9 11 47 -1 42 6 65 39 126 54 102 109 194
119 198 4 2 8 8 8 13 0 5 12 28 26 51 18 27 29 37 34 29 5 -9 9 -8 13 4 4 9 3
13 -3 10 -19 -12 -10 13 15 43 14 17 25 34 25 39 0 4 11 20 25 35 14 15 25 30
25 33 0 6 6 14 45 60 20 23 25 25 21 10 -3 -11 -1 -27 4 -35 7 -11 9 -3 7 25
-2 49 12 70 145 220 104 117 192 205 274 276 84 72 96 81 102 75 3 -3 3 -7 1
-9 -2 -2 -17 -13 -33 -25 l-29 -22 27 0 c16 0 26 5 26 15 0 19 16 19 24 0 7
-20 22 -19 23 3 3 64 10 86 32 103 34 27 47 24 15 -4 -21 -19 -24 -25 -12 -29
23 -9 38 6 41 40 1 18 8 32 15 32 6 0 12 4 12 8 0 5 19 19 43 32 23 13 44 27
47 30 3 4 39 26 80 49 53 29 67 34 48 17 -15 -13 -24 -26 -21 -29 3 -3 -6 -4
-19 -1 -18 3 -17 1 7 -10 17 -9 49 -15 73 -16 41 0 42 0 42 35 0 21 5 35 13
36 6 0 21 3 32 5 11 3 28 5 38 5 21 0 22 15 1 23 -8 3 -12 10 -9 16 15 25 -48
-3 -83 -37 -7 -7 -20 -9 -28 -6 -10 4 5 16 48 37 35 17 66 35 70 41 4 5 29 9
55 9 32 -1 40 1 23 5 -20 6 -1 16 105 57 72 28 150 56 175 63 25 7 55 17 68
22 28 11 257 69 272 69 6 0 9 -4 6 -9 -4 -5 0 -11 6 -14 7 -2 -8 -2 -33 0 -26
3 -49 1 -52 -4 -4 -6 18 -10 51 -10 82 0 122 -12 122 -34 0 -15 8 -19 40 -19
l40 0 0 54 c0 49 2 55 23 59 12 2 -5 2 -38 -1 -33 -3 -58 -2 -55 1 8 8 366 57
465 63 28 2 88 8 135 14 56 8 460 15 1170 20 597 5 1106 12 1131 15 34 5 48 3
51 -7 4 -11 -38 -14 -231 -16 -166 -3 -238 -7 -243 -15 -6 -9 -8 -9 -8 1 0 9
-54 12 -242 10 -177 -1 -219 -4 -153 -8 87 -7 85 -7 -37 -6 -71 0 -128 4 -128
8 0 14 -155 9 -169 -4 -11 -10 -13 -10 -7 0 6 9 -67 12 -349 12 -196 0 -354
-3 -351 -8 2 -4 -15 -8 -40 -8 -24 0 -44 4 -44 8 0 5 -5 8 -11 8 -5 0 -8 -3
-6 -8 3 -4 -46 -6 -109 -4 l-114 4 0 -42 0 -43 -162 6 c-90 2 -144 3 -120 0
28 -3 42 -9 42 -19 0 -12 27 -14 160 -14 136 0 160 2 160 15 0 11 11 15 40 15
29 0 40 -4 40 -15 0 -13 91 -15 760 -15 669 0 760 2 760 15 0 11 11 15 40 15
29 0 40 -4 40 -15 0 -12 16 -15 80 -15 64 0 80 3 80 15 0 12 16 15 80 15 47 0
80 4 80 10 0 13 150 13 170 0 11 -7 0 -10 -37 -10 -40 0 -53 -4 -53 -15 0 -13
33 -15 240 -15 212 0 240 2 240 16 0 13 -13 15 -84 12 -64 -2 -82 0 -79 10 4
9 54 12 204 12 170 0 199 2 199 15 0 13 24 15 160 15 136 0 160 2 160 15 0 11
-11 15 -40 15 -22 0 -40 5 -40 10 0 6 60 10 160 10 136 0 160 2 160 15 0 11
11 15 40 15 36 0 40 3 40 25 l0 25 160 0 160 0 0 30 0 30 80 0 c47 0 80 4 80
10 0 6 33 10 80 10 47 0 80 -4 80 -10 0 -5 18 -10 40 -10 l40 0 0 50 0 50 80
0 c47 0 80 -4 80 -10 0 -5 18 -10 40 -10 36 0 40 3 40 25 0 25 1 25 80 25 64
0 80 3 80 15 0 11 11 15 40 15 22 0 40 5 40 10 0 6 18 10 40 10 29 0 40 4 40
15 0 11 11 15 40 15 36 0 40 3 40 25 0 23 4 25 40 25 29 0 40 4 40 15 0 11 11
15 40 15 29 0 40 4 40 15 0 11 11 15 40 15 22 0 40 5 40 10 0 6 18 10 40 10
29 0 40 4 40 15 0 11 12 15 44 15 26 0 48 6 56 15 10 12 10 15 -4 15 -9 0 -16
5 -16 10 0 6 18 10 40 10 29 0 40 4 40 15 0 11 12 15 44 15 26 0 48 6 56 15
10 12 10 15 -4 15 -9 0 -16 5 -16 10 0 6 21 10 46 10 40 0 50 5 84 40 31 32
46 40 74 40 25 0 36 4 36 15 0 11 11 15 40 15 36 0 40 3 40 25 0 23 4 25 40
25 29 0 40 4 40 15 0 11 11 15 40 15 36 0 40 3 40 25 0 23 4 25 40 25 38 0 40
2 40 30 0 29 1 30 51 30 38 0 58 5 73 20 37 35 76 74 93 94 16 19 17 19 23 0
7 -17 10 -16 38 14 35 37 39 38 44 15 3 -14 8 -11 24 14 21 33 59 63 128 98
21 11 45 30 53 43 18 27 30 28 35 5 3 -14 9 -10 26 18 12 20 33 41 47 47 13 6
31 24 39 40 17 34 46 50 46 26 0 -22 38 1 52 32 7 14 24 32 40 40 15 8 35 29
45 47 l17 32 6 -30 6 -30 22 36 c12 20 33 41 47 47 13 6 31 24 39 40 17 34 46
50 46 26 0 -22 38 1 52 32 7 14 25 32 40 40 16 8 34 26 40 40 7 14 25 32 40
40 16 8 34 26 40 40 7 14 25 32 40 40 16 8 34 26 40 40 7 14 24 32 40 40 15 8
34 27 43 43 8 16 24 33 35 36 12 4 32 24 45 46 l25 39 0 2825 0 2825 -19200 0
-19200 0 0 -8590z m38291 3327 c-6 -8 -7 -18 -3 -22 4 -5 1 -5 -6 -1 -10 6
-10 11 -1 22 6 8 14 14 16 14 3 0 0 -6 -6 -13z m-151 -151 c0 -2 -8 -10 -17
-17 -16 -13 -17 -12 -4 4 13 16 21 21 21 13z m-170 -160 c0 -2 -7 -7 -16 -10
-8 -3 -12 -2 -9 4 6 10 25 14 25 6z m-200 -170 c0 -2 -8 -10 -17 -17 -16 -13
-17 -12 -4 4 13 16 21 21 21 13z m-220 -196 c0 -5 -5 -10 -11 -10 -5 0 -7 5
-4 10 3 6 8 10 11 10 2 0 4 -4 4 -10z m-35 -20 c-3 -5 -12 -10 -18 -10 -7 0
-6 4 3 10 19 12 23 12 15 0z m-87 -71 c-9 -5 -24 -16 -32 -24 -8 -8 -18 -15
-23 -15 -4 0 8 14 27 29 19 16 37 27 40 24 3 -2 -3 -9 -12 -14z m-98 -73 c0
-2 -8 -10 -17 -17 -16 -13 -17 -12 -4 4 13 16 21 21 21 13z m-467 -328 c-13
-6 -23 -15 -23 -20 0 -4 -6 -8 -12 -8 -7 1 -2 10 11 20 13 11 28 20 35 19 6 0
1 -5 -11 -11z m-248 -158 c-3 -5 -12 -10 -18 -10 -7 0 -6 4 3 10 19 12 23 12
15 0z m-149 -85 c-11 -8 -25 -15 -30 -15 -6 1 0 7 14 15 32 19 40 18 16 0z
m-107 -69 c-2 -2 -15 -7 -29 -10 l-25 -7 25 15 c21 12 42 14 29 2z m-199 -96
c0 -5 -5 -10 -11 -10 -5 0 -7 5 -4 10 3 6 8 10 11 10 2 0 4 -4 4 -10z m-75
-40 c-3 -5 -12 -10 -18 -10 -7 0 -6 4 3 10 19 12 23 12 15 0z m-75 -39 c0 -5
-8 -11 -17 -14 -10 -2 -27 -8 -38 -11 -11 -4 -4 2 15 13 41 24 40 23 40 12z
m-270 -131 c0 -5 -8 -10 -17 -10 -15 0 -16 2 -3 10 19 12 20 12 20 0z m-70
-30 c-8 -5 -19 -10 -25 -10 -5 0 -3 5 5 10 8 5 20 10 25 10 6 0 3 -5 -5 -10z
m-65 -30 c-11 -5 -27 -9 -35 -9 -9 0 -8 4 5 9 11 5 27 9 35 9 9 0 8 -4 -5 -9z
m-95 -40 c-8 -5 -19 -10 -25 -10 -5 0 -3 5 5 10 8 5 20 10 25 10 6 0 3 -5 -5
-10z m-73 -34 c0 -8 -8 -11 -21 -8 -19 5 -19 6 0 13 10 4 19 8 20 8 0 1 1 -5
1 -13z m-62 -16 c-27 -12 -43 -12 -25 0 8 5 22 9 30 9 10 0 8 -3 -5 -9z m-25
-30 c18 -12 2 -12 -25 0 -13 6 -15 9 -5 9 8 0 22 -4 30 -9z m-53 -6 c-3 -3
-12 -4 -19 -1 -8 3 -5 6 6 6 11 1 17 -2 13 -5z m-57 -24 c-8 -5 -24 -9 -35 -9
l-20 0 20 9 c11 5 27 9 35 9 13 1 13 0 0 -9z m57 -6 c-3 -3 -12 -4 -19 -1 -8
3 -5 6 6 6 11 1 17 -2 13 -5z m-177 -30 c0 -6 -65 -34 -77 -33 -4 0 10 9 32
20 45 21 45 21 45 13z m-129 -50 c-25 -8 -47 -12 -49 -9 -5 5 56 23 78 23 8 0
-5 -6 -29 -14z m-112 -38 c-2 -2 -18 -7 -34 -11 l-30 -6 30 14 c27 13 45 14
34 3z m-142 -42 c-3 -3 -12 -4 -19 -1 -8 3 -5 6 6 6 11 1 17 -2 13 -5z m68 -4
c3 -6 -1 -7 -9 -4 -18 7 -21 14 -7 14 6 0 13 -4 16 -10z m635 0 c0 -5 -18 -10
-40 -10 -22 0 -40 5 -40 10 0 6 18 10 40 10 22 0 40 -4 40 -10z m-827 -37 c-7
-2 -19 -2 -25 0 -7 3 -2 5 12 5 14 0 19 -2 13 -5z m-73 -17 c-20 -8 -56 -16
-80 -19 -38 -5 -35 -3 20 12 75 22 112 26 60 7z m77 -32 c-3 -3 -12 -4 -19 -1
-8 3 -5 6 6 6 11 1 17 -2 13 -5z m-315 -30 c-12 -8 -28 -12 -34 -8 -9 6 -5 10
12 15 41 11 46 10 22 -7z m-72 -14 c-8 -5 -26 -9 -40 -9 l-25 1 25 8 c14 4 32
8 40 9 13 1 13 0 0 -9z m-67 -17 c3 -5 -16 -9 -41 -10 -37 -1 -42 0 -22 7 33
11 58 12 63 3z m-100 -20 c-7 -2 -21 -2 -30 0 -10 3 -4 5 12 5 17 0 24 -2 18
-5z m-79 -18 c-10 -8 -35 -15 -54 -16 -19 -1 -27 -3 -17 -6 20 -5 18 -25 -4
-31 -11 -3 -12 -2 -1 6 23 16 -47 23 -108 11 -30 -6 -84 -12 -120 -14 l-65 -3
55 8 c188 28 262 41 282 50 37 14 55 12 32 -5z m-580 -84 c3 -5 -27 -12 -67
-15 -39 -4 -94 -9 -121 -12 -34 -5 -47 -3 -42 5 4 6 35 11 69 12 34 0 80 4
102 8 22 5 43 9 47 10 4 0 9 -3 12 -8z m36 -1 c0 -5 -4 -10 -10 -10 -5 0 -10
5 -10 10 0 6 5 10 10 10 6 0 10 -4 10 -10z m-17 -27 c-7 -2 -19 -2 -25 0 -7 3
-2 5 12 5 14 0 19 -2 13 -5z m-143 -13 c0 -13 -20 -13 -40 0 -12 8 -9 10 13
10 15 0 27 -4 27 -10z m68 3 c-10 -2 -26 -2 -35 0 -10 3 -2 5 17 5 19 0 27 -2
18 -5z m49 -9 c-3 -3 -12 -4 -19 -1 -8 3 -5 6 6 6 11 1 17 -2 13 -5z m-40 -10
c-3 -3 -12 -4 -19 -1 -8 3 -5 6 6 6 11 1 17 -2 13 -5z m-1597 -74 c0 -5 -18
-10 -39 -10 -22 0 -43 5 -46 10 -4 6 12 10 39 10 25 0 46 -4 46 -10z m320 0
c0 -6 -33 -10 -79 -10 -44 0 -83 5 -86 10 -4 6 25 10 79 10 51 0 86 -4 86 -10z
m1249 -3 c8 -10 7 -14 -4 -14 -8 0 -15 5 -15 11 0 6 -5 4 -10 -4 -8 -13 -10
-12 -10 3 0 20 23 23 39 4z m-3185 -22 c-17 -13 -17 -14 -1 -15 9 0 17 -5 17
-11 0 -7 -9 -9 -22 -5 -13 3 -31 6 -40 6 -40 0 3 36 46 39 20 1 20 1 0 -14z
m-804 -285 c0 -5 -4 -10 -9 -10 -5 0 -18 -3 -28 -6 -16 -6 -16 -5 2 9 23 19
35 21 35 7z m-473 -267 c-9 -9 -20 -13 -24 -9 -4 4 -1 11 7 16 25 16 35 11 17
-7z m3 -33 c0 -5 -4 -10 -10 -10 -5 0 -10 5 -10 10 0 6 5 10 10 10 6 0 10 -4
10 -10z m-23424 -3892 c4 -7 3 -8 -4 -4 -7 4 -12 2 -12 -3 0 -6 -12 -11 -27
-10 l-28 1 30 13 c17 8 31 14 32 15 1 0 5 -5 9 -12z m-96 -33 c-7 -8 -22 -16
-34 -16 -16 -1 -17 -2 -4 -6 9 -2 30 3 47 11 35 19 67 21 77 5 5 -8 -1 -10
-19 -5 -16 4 -27 2 -30 -7 -2 -8 -24 -12 -61 -12 -46 0 -61 -4 -72 -20 -13
-17 -16 -18 -24 -5 -5 8 -8 15 -7 16 2 3 129 52 136 53 2 1 -2 -6 -9 -14z m70
-36 c0 -16 -26 -39 -44 -39 -9 0 -16 9 -16 21 0 11 4 18 9 14 5 -3 12 -1 16 5
8 13 35 13 35 -1z m-220 -19 c0 -5 -12 -13 -26 -16 -19 -5 -22 -9 -12 -15 11
-7 10 -11 -2 -19 -19 -12 -31 -13 -27 -1 1 5 -2 9 -8 9 -5 0 -9 -3 -8 -6 1 -4
-10 -8 -23 -8 -35 -3 -30 3 24 26 26 11 54 25 62 30 20 12 20 12 20 0z m-160
-85 c0 -9 -6 -12 -17 -9 -17 5 -17 5 0 -9 9 -8 17 -19 17 -26 0 -6 5 -11 10
-11 6 0 10 -7 10 -15 0 -8 -4 -15 -10 -15 -5 0 -10 7 -10 15 0 17 -9 19 -44 6
-18 -7 -28 -6 -36 4 -8 9 -23 13 -39 10 -14 -3 6 11 44 30 83 41 75 38 75 20z
m60 -67 c0 -9 4 -8 10 2 11 17 13 10 4 -14 -3 -9 -12 -16 -19 -16 -7 0 -15 -4
-17 -10 -2 -6 -8 -6 -18 0 -13 8 -12 10 3 10 10 0 17 8 17 20 0 11 5 20 10 20
6 0 10 -6 10 -12z m-257 -30 c-49 -25 -51 -33 -4 -17 50 18 46 5 -5 -14 -25
-9 -42 -12 -39 -7 3 6 3 10 -1 10 -11 0 -79 -73 -77 -82 2 -4 -4 -5 -13 -1
-12 5 -13 7 -3 14 8 4 10 11 6 15 -3 4 -13 1 -22 -6 -9 -8 -15 -8 -15 -2 0 10
43 29 47 21 1 -2 12 6 25 18 30 27 109 72 128 72 8 1 -4 -9 -27 -21z m-43 -84
c0 -10 -31 -36 -37 -31 -10 10 6 37 22 37 8 0 15 -3 15 -6z m-120 -31 c0 -3
-9 -3 -19 0 -12 3 -27 -3 -38 -15 -10 -11 -31 -27 -47 -35 -20 -10 -25 -17
-17 -23 7 -4 0 -7 -18 -6 -17 1 -31 2 -31 3 0 1 15 10 33 19 17 9 47 29 65 44
21 17 41 26 53 23 10 -3 19 -8 19 -10z m-40 -33 c0 -5 -5 -10 -11 -10 -5 0 -7
5 -4 10 3 6 8 10 11 10 2 0 4 -4 4 -10z m120 -40 c0 -5 -7 -10 -16 -10 -8 0
-12 5 -9 10 3 6 10 10 16 10 5 0 9 -4 9 -10z m-292 -44 c-21 -16 -24 -30 -5
-23 8 3 14 -1 14 -8 0 -7 -8 -10 -17 -8 -9 3 -24 -3 -33 -12 -9 -9 -21 -14
-26 -11 -5 3 -14 -1 -21 -9 -7 -8 -18 -15 -26 -15 -20 0 -44 -29 -38 -48 5
-13 4 -14 -4 -3 -8 11 -13 11 -28 -3 -24 -21 -93 -66 -102 -66 -11 0 63 59 75
60 7 0 16 6 20 13 15 26 128 102 148 100 11 -2 14 0 7 3 -8 4 -5 11 10 25 13
10 28 18 33 18 6 0 2 -6 -7 -13z m-92 -111 c-11 -8 -27 -15 -35 -15 -11 0 -10
4 5 15 10 8 26 14 34 14 11 0 10 -3 -4 -14z m-62 -71 c4 -9 4 -19 1 -22 -3 -3
-5 0 -5 6 0 7 -12 10 -32 6 l-33 -5 25 15 c32 20 37 20 44 0z m-74 -14 c0 -5
-5 -10 -11 -10 -5 0 -7 5 -4 10 3 6 8 10 11 10 2 0 4 -4 4 -10z m-80 -38 c0
-5 -10 -14 -22 -20 -13 -7 -34 -19 -48 -29 -34 -23 -23 -11 24 26 42 33 46 35
46 23z m-10 -36 c0 -3 -4 -8 -10 -11 -5 -3 -10 -1 -10 4 0 6 5 11 10 11 6 0
10 -2 10 -4z m-96 -50 c-10 -8 -16 -18 -12 -22 4 -4 14 -1 23 6 10 8 15 9 15
2 0 -17 -37 -35 -42 -21 -3 8 -10 8 -25 -1 -12 -8 -19 -20 -16 -27 3 -8 0 -11
-8 -8 -8 2 -25 -5 -38 -16 -20 -17 -22 -22 -11 -29 12 -7 10 -9 -5 -8 -11 0
-29 -3 -40 -7 -18 -8 9 18 84 80 14 11 34 30 45 41 12 12 27 22 35 23 10 1 9
-4 -5 -13z m46 -50 c0 -3 -4 -8 -10 -11 -5 -3 -10 -1 -10 4 0 6 5 11 10 11 6
0 10 -2 10 -4z m-238 -116 c-12 -10 -21 -25 -20 -32 2 -7 -3 -12 -10 -10 -8 1
-16 -6 -19 -17 -5 -18 -31 -36 -40 -27 -6 6 89 106 101 106 6 -1 1 -9 -12 -20z
m38 -5 c-13 -14 -26 -23 -28 -20 -4 4 38 44 47 45 3 0 -6 -11 -19 -25z m-153
-99 c-9 -7 -17 -18 -17 -24 0 -6 -9 -16 -20 -22 -11 -6 -20 -17 -20 -25 0 -8
-6 -14 -12 -12 -7 1 -12 -3 -11 -10 2 -7 -4 -10 -13 -6 -12 4 -2 19 43 64 31
32 60 56 63 53 3 -3 -3 -11 -13 -18z m16 -21 c-3 -9 -8 -14 -10 -11 -3 3 -2 9
2 15 9 16 15 13 8 -4z m-23 -55 c0 -5 -7 -10 -16 -10 -8 0 -12 5 -9 10 3 6 10
10 16 10 5 0 9 -4 9 -10z m-100 -39 c0 -12 -20 -25 -27 -18 -7 7 6 27 18 27 5
0 9 -4 9 -9z m-47 -38 c-5 -12 -3 -14 8 -8 12 7 12 6 1 -7 -8 -9 -20 -14 -28
-11 -13 5 -12 8 2 24 21 23 25 24 17 2z m67 2 c-7 -9 -15 -13 -17 -11 -7 7 7
26 19 26 6 0 6 -6 -2 -15z m-110 -50 c-7 -9 -15 -13 -17 -11 -7 7 7 26 19 26
6 0 6 -6 -2 -15z m-37 -32 c-5 -12 -3 -14 8 -8 9 5 8 2 -3 -10 -23 -25 -45 -9
-22 16 21 23 25 24 17 2z m77 8 c0 -12 -20 -25 -27 -18 -7 7 6 27 18 27 5 0 9
-4 9 -9z m-116 -56 c-6 -16 -24 -21 -24 -7 0 11 11 22 21 22 5 0 6 -7 3 -15z
m36 -14 c0 -12 -20 -25 -27 -18 -7 7 6 27 18 27 5 0 9 -4 9 -9z m-66 -17 c3
-8 2 -13 -3 -10 -4 3 -17 -4 -27 -15 -10 -11 -26 -27 -36 -36 -9 -9 -14 -22
-11 -28 2 -7 0 -16 -6 -20 -7 -4 -8 1 -4 12 5 15 3 16 -8 6 -7 -7 -17 -13 -22
-13 -7 0 101 119 109 120 1 0 5 -7 8 -16z m-24 -74 c0 -5 -4 -10 -10 -10 -5 0
-10 5 -10 10 0 6 5 10 10 10 6 0 10 -4 10 -10z m-90 -60 c0 -6 -11 -15 -25
-20 -14 -5 -24 -15 -23 -22 2 -7 -5 -12 -14 -10 -10 2 -18 -2 -18 -8 0 -5 5
-10 10 -10 6 0 10 -4 10 -9 0 -5 -11 -8 -25 -7 -14 0 -25 4 -25 8 0 9 91 88
101 88 5 0 9 -5 9 -10z m10 -40 c0 -5 -5 -10 -11 -10 -5 0 -7 5 -4 10 3 6 8
10 11 10 2 0 4 -4 4 -10z m-149 -83 l-24 -22 19 27 c10 14 21 24 23 22 3 -3
-6 -15 -18 -27z m-37 -48 c-65 -73 -84 -92 -88 -88 -6 6 87 108 98 109 5 0 1
-10 -10 -21z m-104 -103 c0 -2 -8 -10 -17 -17 -16 -13 -17 -12 -4 4 13 16 21
21 21 13z m-25 -71 c1 -14 -2 -22 -5 -19 -3 3 -5 16 -5 29 -1 14 2 22 5 19 3
-3 5 -16 5 -29z m-31 2 c-2 -7 -14 -19 -27 -26 -21 -13 -21 -12 2 13 27 29 33
32 25 13z m-53 -61 c-9 -11 -9 -15 1 -19 7 -2 9 -8 5 -13 -11 -11 -27 15 -20
33 3 7 10 13 15 13 6 0 6 -6 -1 -14z m-26 -36 c3 -5 1 -10 -4 -10 -6 0 -11 5
-11 10 0 6 2 10 4 10 3 0 8 -4 11 -10z m-55 -53 c0 -2 -10 -12 -22 -23 l-23
-19 19 23 c18 21 26 27 26 19z m-91 -111 c-18 -25 -34 -44 -37 -42 -5 5 61 95
67 91 2 -2 -12 -24 -30 -49z m21 -46 c0 -5 -4 -10 -10 -10 -5 0 -10 5 -10 10
0 6 5 10 10 10 6 0 10 -4 10 -10z m-77 -15 c-3 -9 -8 -14 -10 -11 -3 3 -2 9 2
15 9 16 15 13 8 -4z m-33 -50 c-7 -9 -15 -13 -18 -10 -3 2 1 11 8 20 7 9 15
13 18 10 3 -2 -1 -11 -8 -20z m10 -29 c0 -3 -4 -8 -10 -11 -5 -3 -10 -1 -10 4
0 6 5 11 10 11 6 0 10 -2 10 -4z m-66 -62 c20 -19 20 -25 1 -18 -8 4 -15 11
-15 16 0 6 -7 5 -15 -2 -13 -11 -14 -10 -9 4 8 20 18 20 38 0z m-63 -37 c-6
-8 -7 -18 -3 -22 4 -5 1 -5 -6 -1 -10 6 -10 11 -1 22 6 8 14 14 16 14 3 0 0
-6 -6 -13z m-16 -37 c3 -5 1 -10 -4 -10 -6 0 -11 5 -11 10 0 6 2 10 4 10 3 0
8 -4 11 -10z m-33 -32 c-7 -7 -12 -8 -12 -2 0 14 12 26 19 19 2 -3 -1 -11 -7
-17z m-60 -68 c-9 -16 -21 -30 -25 -30 -5 0 1 14 13 30 27 39 34 39 12 0z
m-92 -110 c-11 -21 -57 -70 -66 -70 -5 0 68 89 74 90 1 0 -2 -9 -8 -20z m-83
-102 c-3 -8 -6 -5 -6 6 -1 11 2 17 5 13 3 -3 4 -12 1 -19z m-44 -47 c-9 -12
-22 -21 -27 -21 -5 0 1 11 14 25 28 30 39 26 13 -4z m-33 -35 c0 -3 -4 -8 -10
-11 -5 -3 -10 -1 -10 4 0 6 5 11 10 11 6 0 10 -2 10 -4z m-30 -29 c0 -2 -10
-12 -22 -23 l-23 -19 19 23 c18 21 26 27 26 19z m-80 -91 c0 -2 -8 -10 -17
-17 -16 -13 -17 -12 -4 4 13 16 21 21 21 13z m310 -6 c0 -5 -5 -10 -11 -10 -5
0 -7 5 -4 10 3 6 8 10 11 10 2 0 4 -4 4 -10z m-390 -80 c0 -5 -5 -10 -11 -10
-5 0 -7 5 -4 10 3 6 8 10 11 10 2 0 4 -4 4 -10z m-56 -65 c-4 -8 -11 -15 -16
-15 -6 0 -5 6 2 15 7 8 14 15 16 15 2 0 1 -7 -2 -15z m-44 -48 c0 -2 -12 -14
-26 -28 l-27 -24 18 28 c14 22 35 36 35 24z m-80 -80 c0 -2 -12 -14 -27 -28
l-28 -24 24 28 c23 25 31 32 31 24z m330 -47 c0 -5 -5 -10 -11 -10 -5 0 -7 5
-4 10 3 6 8 10 11 10 2 0 4 -4 4 -10z m-910 -515 c-7 -9 -15 -13 -19 -10 -3 3
1 10 9 15 21 14 24 12 10 -5z m-55 -45 c-3 -5 -12 -10 -18 -10 -7 0 -6 4 3 10
19 12 23 12 15 0z m-85 -69 c0 -5 -7 -12 -16 -15 -14 -5 -15 -4 -4 9 14 17 20
19 20 6z m-40 -41 c0 -5 -5 -10 -11 -10 -5 0 -7 5 -4 10 3 6 8 10 11 10 2 0 4
-4 4 -10z m-190 -135 c-7 -8 -17 -15 -23 -15 -6 0 -2 7 9 15 25 19 30 19 14 0z
m-165 -125 c-3 -5 -12 -10 -18 -10 -7 0 -6 4 3 10 19 12 23 12 15 0z m-674
-413 c-6 -8 -7 -18 -3 -22 4 -5 2 -5 -5 -1 -14 8 -6 36 9 36 7 0 6 -5 -1 -13z"/>
<path d="M4989 9066 c6 -7 8 -15 5 -19 -3 -3 3 -3 15 0 24 6 20 18 -9 26 -16
4 -19 2 -11 -7z"/>
<path d="M38240 15744 c0 -14 3 -14 15 -4 8 7 15 14 15 16 0 2 -7 4 -15 4 -8
0 -15 -7 -15 -16z"/>
<path d="M36480 14544 c0 -14 3 -14 15 -4 8 7 15 14 15 16 0 2 -7 4 -15 4 -8
0 -15 -7 -15 -16z"/>
<path d="M35200 14065 c0 -11 11 -15 40 -15 29 0 40 4 40 15 0 11 -11 15 -40
15 -29 0 -40 -4 -40 -15z"/>
<path d="M34880 13985 c0 -11 11 -15 40 -15 29 0 40 4 40 15 0 11 -11 15 -40
15 -29 0 -40 -4 -40 -15z"/>
<path d="M30597 13797 c4 -6 -15 -8 -53 -4 -35 4 -93 1 -144 -8 -69 -12 -74
-14 -27 -11 34 3 55 1 52 -5 -4 -5 -28 -9 -56 -9 -37 0 -49 -4 -49 -15 0 -22
155 -22 164 0 4 10 -2 19 -16 24 -14 5 -17 10 -10 15 12 7 56 -17 47 -26 -3
-2 2 -5 10 -5 9 0 14 6 11 12 -5 15 135 27 218 18 48 -5 56 -3 56 11 0 14 -14
16 -105 14 -65 -1 -102 -5 -98 -11z"/>
<path d="M29878 13686 c-45 -11 -74 -26 -50 -26 7 0 12 -5 12 -11 0 -6 -9 -8
-21 -4 -12 4 -42 4 -67 0 -39 -6 -43 -9 -27 -16 14 -7 10 -8 -17 -4 -20 3 -39
1 -43 -5 -4 -6 6 -10 24 -10 17 0 31 -4 31 -10 0 -5 10 0 21 11 17 17 29 20
58 15 20 -3 47 -6 61 -6 20 0 22 -2 10 -10 -12 -8 -9 -10 12 -10 18 0 29 6 33
20 4 11 12 20 18 19 7 -1 40 -1 74 0 49 1 61 4 57 15 -4 10 -23 13 -71 12 -46
-1 -68 3 -71 12 -3 9 3 11 22 6 16 -4 26 -2 26 5 0 13 -29 12 -92 -3z"/>
<path d="M30033 13683 c15 -2 37 -2 50 0 12 2 0 4 -28 4 -27 0 -38 -2 -22 -4z"/>
<path d="M29993 13623 c9 -2 23 -2 30 0 6 3 -1 5 -18 5 -16 0 -22 -2 -12 -5z"/>
<path d="M29793 13603 c9 -2 23 -2 30 0 6 3 -1 5 -18 5 -16 0 -22 -2 -12 -5z"/>
<path d="M29590 13592 c0 -7 -7 -12 -16 -12 -14 0 -104 -37 -104 -43 0 -2 26
-3 58 -4 31 0 42 2 25 4 -18 3 -33 9 -33 15 0 7 15 9 39 5 30 -4 41 -1 46 11
3 8 1 20 -5 26 -7 7 -10 6 -10 -2z"/>
<path d="M29120 13370 c0 -6 7 -10 15 -10 8 0 15 2 15 4 0 2 -7 6 -15 10 -8 3
-15 1 -15 -4z"/>
<path d="M29090 13349 c0 -8 -19 -22 -41 -33 -22 -10 -38 -21 -35 -24 3 -2 11
0 18 5 20 16 66 24 73 13 3 -6 -4 -15 -17 -20 -17 -7 -18 -9 -4 -7 10 1 25 11
32 23 13 18 12 23 -6 39 -15 14 -20 15 -20 4z"/>
<path d="M28949 13163 c-1 -5 -1 -11 0 -15 0 -5 -6 -8 -15 -8 -8 0 -12 -4 -9
-10 12 -19 38 -11 32 10 -3 10 0 21 7 24 7 3 7 5 -1 5 -7 1 -14 -2 -14 -6z"/>
<path d="M28746 13089 c-11 -10 -17 -21 -14 -24 7 -7 68 27 68 38 0 14 -35 6
-54 -14z"/>
<path d="M28658 13008 c-32 -32 -58 -63 -58 -68 0 -5 -8 -11 -19 -15 -23 -7
-59 -45 -42 -45 6 0 14 7 17 15 4 8 10 12 15 10 8 -6 29 13 62 56 l18 24 -7
-30 c-4 -16 -11 -32 -16 -33 -4 -2 -13 -12 -18 -23 -8 -15 -7 -19 4 -19 8 0
20 16 27 35 10 28 18 35 39 35 31 0 59 35 29 37 -11 1 -19 -5 -19 -13 0 -16
-16 -19 -25 -4 -3 5 4 19 15 30 11 11 25 18 30 15 6 -4 10 -1 10 4 0 6 -5 11
-11 11 -8 0 -7 5 1 15 7 9 11 17 9 19 -2 2 -30 -23 -61 -56z"/>
<path d="M28780 13055 c-8 -9 -8 -15 -2 -15 12 0 26 19 19 26 -2 2 -10 -2 -17
-11z"/>
<path d="M28510 12853 c-27 -33 -14 -61 30 -62 13 -1 13 0 0 9 -13 8 -12 10 3
10 9 0 17 7 17 16 0 14 -2 15 -17 3 -15 -13 -16 -11 -11 14 6 31 -1 34 -22 10z"/>
<path d="M28470 12810 c0 -5 -7 -10 -17 -10 -15 0 -15 -2 1 -19 11 -13 15 -27
11 -40 -4 -12 -2 -21 4 -21 6 0 11 9 11 19 0 11 3 27 7 37 5 12 3 15 -6 9 -10
-5 -11 -2 -6 14 3 11 4 21 1 21 -3 0 -6 -4 -6 -10z"/>
<path d="M28395 12724 c-16 -15 -24 -29 -18 -32 5 -4 13 -14 16 -22 4 -8 4 -1
1 17 -5 28 -2 33 20 39 14 3 26 10 26 15 0 16 -16 10 -45 -17z"/>
<path d="M28426 12689 c2 -51 4 -55 15 -36 5 9 16 17 24 17 9 0 12 6 9 15 -4
8 -10 15 -16 15 -5 0 -6 -4 -3 -10 3 -5 1 -10 -4 -10 -6 0 -11 6 -11 14 0 8
-3 17 -7 19 -5 3 -7 -8 -7 -24z"/>
<path d="M28338 12660 c-16 -18 -14 -30 4 -30 5 0 6 5 2 11 -5 9 1 10 20 5 25
-6 26 -5 14 14 -15 24 -18 24 -40 0z"/>
<path d="M28450 12650 c0 -5 7 -10 15 -10 8 0 15 5 15 10 0 6 -7 10 -15 10 -8
0 -15 -4 -15 -10z"/>
<path d="M28276 12573 c-6 -14 -5 -15 5 -6 7 7 10 15 7 18 -3 3 -9 -2 -12 -12z"/>
<path d="M28212 12488 c-7 -7 -12 -16 -12 -21 0 -5 7 -1 16 8 9 9 14 18 12 20
-2 3 -10 -1 -16 -7z"/>
<path d="M28231 12444 c0 -11 3 -14 6 -6 3 7 2 16 -1 19 -3 4 -6 -2 -5 -13z"/>
<path d="M28185 12431 c-3 -6 3 -15 14 -20 28 -16 33 -14 21 9 -12 22 -25 26
-35 11z"/>
<path d="M28120 12350 c0 -5 0 -13 0 -17 0 -3 11 -7 25 -9 19 -2 25 2 25 17 0
10 -4 19 -10 19 -5 0 -7 -8 -4 -17 5 -17 5 -17 -6 0 -12 19 -30 23 -30 7z"/>
<path d="M28055 12251 c-3 -10 -3 -25 1 -34 3 -8 0 -26 -6 -39 l-11 -23 20 24
c22 25 27 41 12 41 -5 0 -8 11 -5 25 5 29 -2 34 -11 6z"/>
<path d="M28101 12227 c0 -10 -8 -25 -16 -33 -17 -18 -20 -34 -5 -34 14 0 32
49 27 69 -4 13 -5 12 -6 -2z"/>
<path d="M28022 12188 c-14 -14 -16 -28 -3 -28 9 0 24 30 18 36 -2 2 -9 -2
-15 -8z"/>
<path d="M27965 12083 c-4 -16 -10 -35 -15 -44 -5 -11 -2 -19 11 -27 18 -11
19 -9 15 30 -2 24 1 49 6 56 7 8 7 12 -1 12 -6 0 -13 -12 -16 -27z"/>
<path d="M27992 12050 c0 -14 2 -19 5 -12 2 6 2 18 0 25 -3 6 -5 1 -5 -13z"/>
<path d="M27912 11860 c0 -14 2 -19 5 -12 2 6 2 18 0 25 -3 6 -5 1 -5 -13z"/>
<path d="M27836 11819 c2 -13 1 -18 -2 -11 -4 10 -10 7 -18 -10 -18 -33 -26
-68 -16 -68 5 0 12 14 15 31 5 22 10 28 15 18 6 -9 11 -5 16 15 4 16 2 32 -4
38 -8 8 -10 4 -6 -13z"/>
<path d="M27770 11705 c0 -8 5 -15 10 -15 6 0 10 7 10 15 0 8 -4 15 -10 15 -5
0 -10 -7 -10 -15z"/>
<path d="M27832 11700 c0 -14 2 -19 5 -12 2 6 2 18 0 25 -3 6 -5 1 -5 -13z"/>
<path d="M27736 11642 c-9 -14 2 -76 14 -80 8 -3 10 2 5 16 -3 12 -1 30 4 41
8 14 7 20 -4 25 -8 3 -16 2 -19 -2z"/>
<path d="M27709 11573 c-6 -35 5 -53 31 -53 13 1 13 2 -2 13 -9 7 -18 26 -20
42 l-3 30 -6 -32z"/>
<path d="M27652 11463 c-5 -15 -10 -45 -10 -67 0 -32 2 -36 13 -25 7 8 15 28
19 44 4 19 3 25 -2 17 -8 -11 -10 -11 -15 2 -4 9 1 19 11 25 12 7 14 13 6 21
-8 8 -14 4 -22 -17z"/>
<path d="M27574 11283 c-4 -16 -13 -40 -21 -55 -12 -24 -11 -27 2 -22 8 4 15
16 15 28 1 18 3 17 16 -9 12 -25 13 -25 8 -5 -4 14 -7 40 -7 58 -1 39 -5 41
-13 5z"/>
<path d="M27503 11090 c6 -16 13 -27 15 -25 7 7 -8 55 -17 55 -5 0 -4 -13 2
-30z"/>
<path d="M27480 11073 c0 -12 5 -25 11 -28 17 -11 18 -2 4 25 -14 24 -14 24
-15 3z"/>
<path d="M27500 11000 c0 -5 5 -10 10 -10 6 0 10 5 10 10 0 6 -4 10 -10 10 -5
0 -10 -4 -10 -10z"/>
<path d="M27428 10952 c-3 -9 -1 -26 3 -37 6 -16 8 -14 8 12 1 17 7 34 14 36
7 4 6 6 -4 6 -9 1 -19 -7 -21 -17z"/>
<path d="M27396 10885 c-3 -9 -5 -29 -5 -43 1 -20 3 -17 9 13 8 43 7 57 -4 30z"/>
<path d="M27421 10868 c-1 -16 4 -28 9 -28 12 0 12 8 0 35 -8 18 -9 17 -9 -7z"/>
<path d="M27410 10810 c0 -5 5 -10 10 -10 6 0 10 5 10 10 0 6 -4 10 -10 10 -5
0 -10 -4 -10 -10z"/>
<path d="M27330 10718 c-7 -23 -20 -51 -28 -60 -13 -16 -13 -18 0 -18 9 0 18
10 22 23 5 17 8 19 15 8 13 -20 24 39 13 68 -7 21 -9 19 -22 -21z m17 -20 c-3
-8 -6 -5 -6 6 -1 11 2 17 5 13 3 -3 4 -12 1 -19z"/>
<path d="M27272 10570 c0 -19 2 -27 5 -17 2 9 2 25 0 35 -3 9 -5 1 -5 -18z"/>
<path d="M27261 10520 c0 -8 4 -22 9 -30 12 -18 12 -2 0 25 -6 13 -9 15 -9 5z"/>
<path d="M27237 10513 c-4 -3 -7 -11 -7 -17 0 -6 5 -5 12 2 6 6 9 14 7 17 -3
3 -9 2 -12 -2z"/>
<path d="M27187 10405 c-4 -8 -2 -17 3 -20 6 -4 10 3 10 14 0 25 -6 27 -13 6z"/>
<path d="M27190 10359 c0 -5 -4 -7 -10 -4 -5 3 -10 0 -10 -9 0 -8 -6 -17 -12
-20 -7 -3 -4 -4 7 -3 15 1 21 -5 23 -27 2 -16 -2 -32 -9 -37 -8 -4 -10 -11 -6
-16 15 -14 26 21 25 74 -1 29 -3 53 -5 53 -2 0 -3 -5 -3 -11z"/>
<path d="M27147 10292 c-19 -20 -23 -52 -7 -52 6 0 10 9 10 19 0 11 5 21 12
23 6 2 9 10 7 17 -3 9 -9 7 -22 -7z"/>
<path d="M27092 10193 c-11 -26 -11 -27 3 -9 15 20 15 20 16 0 0 -10 3 -14 5
-7 3 7 1 19 -3 28 -8 13 -11 11 -21 -12z"/>
<path d="M27081 10153 c-1 -6 -8 -19 -17 -27 -8 -9 -14 -21 -12 -27 2 -7 12 0
22 15 9 15 15 33 12 39 -3 9 -5 9 -5 0z"/>
<path d="M27112 10100 c0 -14 2 -19 5 -12 2 6 2 18 0 25 -3 6 -5 1 -5 -13z"/>
<path d="M27001 10009 c-7 -19 -17 -42 -22 -51 -15 -29 -10 -33 11 -10 11 12
20 29 20 38 0 9 6 14 13 11 7 -3 13 5 14 21 1 16 -2 20 -7 12 -6 -10 -8 -10
-12 1 -2 7 -10 -3 -17 -22z"/>
<path d="M27032 9940 c0 -14 2 -19 5 -12 2 6 2 18 0 25 -3 6 -5 1 -5 -13z"/>
<path d="M26937 9886 c-9 -24 -9 -28 3 -21 6 3 11 -4 11 -17 1 -14 3 -17 6 -7
2 8 0 26 -5 39 -7 20 -9 21 -15 6z"/>
<path d="M26916 9837 c3 -8 -6 -27 -20 -42 -14 -15 -25 -35 -25 -44 1 -15 2
-15 6 0 2 9 15 21 28 27 26 12 35 55 15 67 -5 3 -7 0 -4 -8z"/>
<path d="M26941 9783 c-7 -8 -11 -16 -8 -19 2 -2 10 2 17 11 17 20 9 27 -9 8z"/>
<path d="M26839 9699 c-11 -22 -11 -23 4 -10 14 11 17 11 17 0 1 -9 4 -8 11 4
6 10 8 21 5 24 -3 4 -6 0 -6 -8 0 -12 -2 -12 -9 0 -7 11 -12 9 -22 -10z"/>
<path d="M26786 9613 c-6 -14 -5 -15 5 -6 7 7 10 15 7 18 -3 3 -9 -2 -12 -12z"/>
<path d="M26762 9559 c-7 -11 -11 -23 -9 -26 3 -3 11 5 17 17 10 18 14 20 22
9 8 -12 9 -12 6 0 -6 23 -22 23 -36 0z"/>
<path d="M26698 9474 c-2 -5 1 -20 8 -34 8 -14 13 -18 13 -10 -1 24 -15 55
-21 44z"/>
<path d="M26682 9420 c0 -14 2 -19 5 -12 2 6 2 18 0 25 -3 6 -5 1 -5 -13z"/>
<path d="M6035 9399 c-27 -5 -90 -14 -138 -21 -49 -7 -86 -16 -82 -20 4 -3 2
-15 -4 -25 -6 -10 -11 -13 -11 -6 0 6 -6 13 -12 16 -7 2 -5 3 5 1 9 -1 15 2
11 7 -7 12 -41 11 -49 -1 -3 -5 -14 -10 -24 -10 -10 0 -24 -7 -31 -16 -10 -11
-24 -14 -49 -10 -20 4 -52 0 -73 -7 l-36 -13 38 -12 c35 -11 76 -10 88 3 5 5
-34 9 -67 8 -8 -1 -10 2 -4 8 14 14 163 -21 163 -38 0 -9 13 -13 40 -13 43 0
50 13 29 52 -8 15 -8 19 0 14 7 -5 11 2 11 18 0 30 -11 28 190 29 74 0 106 2
70 4 -36 2 -69 9 -75 14 -11 12 108 3 154 -12 24 -7 25 -7 4 -8 -15 -1 -23 -7
-23 -19 0 -15 7 -18 38 -16 20 1 56 2 80 3 35 1 42 4 42 21 0 17 -7 20 -39 20
-22 0 -43 5 -46 10 -3 6 -41 11 -83 12 -42 1 29 5 158 8 l235 6 -230 1 c-126
0 -252 -3 -280 -8z m-42 -26 c-7 -2 -19 -2 -25 0 -7 3 -2 5 12 5 14 0 19 -2
13 -5z m-233 -68 c0 -8 -4 -15 -10 -15 -5 0 -10 7 -10 15 0 8 5 15 10 15 6 0
10 -7 10 -15z"/>
<path d="M6640 9390 c0 -5 19 -10 43 -9 36 1 38 2 17 9 -36 12 -60 12 -60 0z"/>
<path d="M26657 9393 c-4 -6 0 -16 8 -23 21 -17 28 -8 11 15 -8 11 -15 14 -19
8z"/>
<path d="M6255 9384 c47 -7 324 -9 312 -2 -6 4 -84 7 -172 6 -88 0 -151 -2
-140 -4z"/>
<path d="M6423 9363 c-25 -5 -31 -28 -10 -35 6 -2 41 -4 77 -4 53 1 65 4 68
19 3 13 -3 17 -26 17 -16 0 -42 2 -58 4 -16 2 -39 2 -51 -1z"/>
<path d="M6608 9363 c6 -2 18 -2 25 0 6 3 1 5 -13 5 -14 0 -19 -2 -12 -5z"/>
<path d="M6668 9363 c12 -2 30 -2 40 0 9 3 -1 5 -23 4 -22 0 -30 -2 -17 -4z"/>
<path d="M26631 9334 c0 -11 3 -14 6 -6 3 7 2 16 -1 19 -3 4 -6 -2 -5 -13z"/>
<path d="M5665 9330 c-3 -5 -1 -10 4 -10 6 0 11 5 11 10 0 6 -2 10 -4 10 -3 0
-8 -4 -11 -10z"/>
<path d="M7003 9323 c9 -2 23 -2 30 0 6 3 -1 5 -18 5 -16 0 -22 -2 -12 -5z"/>
<path d="M7055 9311 c-6 -5 -45 -11 -88 -12 -43 -2 -80 -7 -83 -11 -7 -11 56
-10 140 2 50 8 72 7 83 -1 16 -14 25 -9 15 8 -10 16 -55 26 -67 14z"/>
<path d="M5997 9290 c4 -16 14 -20 44 -20 27 0 39 4 39 14 0 17 -18 31 -28 21
-3 -3 0 -10 8 -15 13 -9 13 -10 0 -10 -8 1 -24 7 -34 15 -27 20 -35 19 -29 -5z"/>
<path d="M6792 9304 c3 -3 12 -7 20 -8 7 -2 21 -6 31 -11 10 -4 21 -5 24 -1
10 9 1 14 -41 20 -22 4 -37 4 -34 0z"/>
<path d="M26582 9295 c-7 -8 -9 -15 -4 -15 5 0 15 7 22 15 16 19 -1 19 -18 0z"/>
<path d="M6563 9283 c0 -9 22 -13 78 -13 52 0 78 4 82 13 3 9 -16 12 -78 12
-59 0 -82 -4 -82 -12z"/>
<path d="M5508 9283 c7 -3 16 -2 19 1 4 3 -2 6 -13 5 -11 0 -14 -3 -6 -6z"/>
<path d="M7178 9283 c6 -2 18 -2 25 0 6 3 1 5 -13 5 -14 0 -19 -2 -12 -5z"/>
<path d="M7280 9250 c0 -5 5 -10 11 -10 5 0 7 5 4 10 -3 6 -8 10 -11 10 -2 0
-4 -4 -4 -10z"/>
<path d="M7293 9233 c-23 -9 -14 -25 10 -18 31 10 45 25 22 24 -11 0 -26 -3
-32 -6z"/>
<path d="M26540 9231 c0 -6 5 -13 10 -16 6 -3 10 1 10 9 0 9 -4 16 -10 16 -5
0 -10 -4 -10 -9z"/>
<path d="M7355 9221 c-6 -5 -19 -11 -30 -14 -18 -4 -17 -5 3 -6 13 0 30 -8 38
-16 9 -8 22 -15 30 -15 8 0 14 7 14 15 0 9 -9 15 -25 15 -14 0 -25 4 -25 9 0
5 10 7 23 4 18 -4 19 -3 7 6 -18 13 -23 13 -35 2z"/>
<path d="M26530 9189 c0 -5 5 -7 10 -4 6 3 10 8 10 11 0 2 -4 4 -10 4 -5 0
-10 -5 -10 -11z"/>
<path d="M7445 9180 c3 -5 13 -10 21 -10 8 0 12 5 9 10 -3 6 -13 10 -21 10 -8
0 -12 -4 -9 -10z"/>
<path d="M7510 9163 c-29 -11 -40 -43 -14 -43 8 0 12 5 9 10 -3 6 -2 10 3 10
6 0 12 7 16 15 3 8 4 15 3 14 -1 0 -9 -3 -17 -6z"/>
<path d="M26498 9159 c-23 -13 -62 -69 -48 -69 6 0 16 11 22 25 6 14 17 25 24
25 13 0 29 18 22 25 -2 2 -11 -1 -20 -6z"/>
<path d="M7536 9153 c-11 -11 -6 -23 8 -23 8 0 17 4 20 9 7 10 -19 23 -28 14z"/>
<path d="M26551 9144 c0 -11 3 -14 6 -6 3 7 2 16 -1 19 -3 4 -6 -2 -5 -13z"/>
<path d="M7440 9140 c0 -5 5 -10 10 -10 6 0 10 5 10 10 0 6 -4 10 -10 10 -5 0
-10 -4 -10 -10z"/>
<path d="M7585 9130 c4 -6 10 -8 15 -5 4 3 6 -4 3 -15 -4 -14 0 -20 11 -20 21
0 21 36 0 44 -24 9 -36 7 -29 -4z"/>
<path d="M17278 9123 c23 -2 61 -2 85 0 23 2 4 4 -43 4 -47 0 -66 -2 -42 -4z"/>
<path d="M17448 9123 c7 -3 16 -2 19 1 4 3 -2 6 -13 5 -11 0 -14 -3 -6 -6z"/>
<path d="M16665 9081 l-30 -7 35 -7 c19 -3 49 -8 65 -10 17 -2 20 -2 8 0 -32
6 -29 21 5 26 18 3 15 4 -13 4 -22 0 -53 -2 -70 -6z"/>
<path d="M17938 9083 c12 -2 32 -2 45 0 12 2 2 4 -23 4 -25 0 -35 -2 -22 -4z"/>
<path d="M7650 9054 c0 -12 6 -15 23 -10 12 3 35 -1 51 -9 34 -18 44 -19 28
-3 -11 11 -78 38 -94 38 -5 0 -8 -7 -8 -16z"/>
<path d="M16553 9063 c9 -2 25 -2 35 0 9 3 1 5 -18 5 -19 0 -27 -2 -17 -5z"/>
<path d="M17920 9060 c0 -5 4 -10 9 -10 6 0 13 5 16 10 3 6 -1 10 -9 10 -9 0
-16 -4 -16 -10z"/>
<path d="M18128 9063 c6 -2 18 -2 25 0 6 3 1 5 -13 5 -14 0 -19 -2 -12 -5z"/>
<path d="M26450 9059 c0 -5 5 -7 10 -4 6 3 10 8 10 11 0 2 -4 4 -10 4 -5 0
-10 -5 -10 -11z"/>
<path d="M16488 9053 c7 -3 16 -2 19 1 4 3 -2 6 -13 5 -11 0 -14 -3 -6 -6z"/>
<path d="M16648 9053 c7 -3 16 -2 19 1 4 3 -2 6 -13 5 -11 0 -14 -3 -6 -6z"/>
<path d="M18065 9050 c19 -8 103 -14 94 -6 -2 2 -29 6 -59 9 -34 3 -47 2 -35
-3z"/>
<path d="M16578 9043 c12 -2 30 -2 40 0 9 3 -1 5 -23 4 -22 0 -30 -2 -17 -4z"/>
<path d="M26382 9028 c-7 -9 -6 -17 3 -25 10 -9 13 -7 11 13 -1 28 -1 28 -14
12z"/>
<path d="M18400 9020 c0 -6 7 -10 15 -10 8 0 15 2 15 4 0 2 -7 6 -15 10 -8 3
-15 1 -15 -4z"/>
<path d="M7846 8994 c-21 -20 -20 -34 2 -34 13 0 14 2 4 9 -11 7 -10 10 3 15
24 9 37 8 31 -3 -3 -5 4 -9 17 -9 12 0 33 -2 47 -6 23 -5 22 -5 -2 6 -16 7
-28 15 -28 20 0 4 -6 5 -14 2 -8 -3 -17 -1 -21 5 -9 15 -21 14 -39 -5z"/>
<path d="M16278 9003 c7 -3 16 -2 19 1 4 3 -2 6 -13 5 -11 0 -14 -3 -6 -6z"/>
<path d="M18510 8991 c0 -5 9 -7 20 -4 11 3 20 7 20 9 0 2 -9 4 -20 4 -11 0
-20 -4 -20 -9z"/>
<path d="M18586 8982 c-4 -7 7 -11 26 -11 18 0 53 -2 78 -5 l45 -5 -40 9 c-88
20 -103 22 -109 12z"/>
<path d="M16150 8970 c8 -5 20 -10 25 -10 6 0 3 5 -5 10 -8 5 -19 10 -25 10
-5 0 -3 -5 5 -10z"/>
<path d="M16253 8973 c9 -2 23 -2 30 0 6 3 -1 5 -18 5 -16 0 -22 -2 -12 -5z"/>
<path d="M18537 8969 c7 -7 15 -10 18 -7 3 3 -2 9 -12 12 -14 6 -15 5 -6 -5z"/>
<path d="M8000 8935 c0 -10 29 -24 34 -17 3 6 -3 12 -14 15 -11 3 -20 4 -20 2z"/>
<path d="M26292 8928 c-7 -7 -12 -17 -12 -22 0 -6 5 -4 10 4 9 13 11 13 20 0
8 -13 10 -13 10 2 0 22 -14 30 -28 16z"/>
<path d="M15969 8920 c-8 -6 3 -8 31 -5 24 2 50 -1 57 -7 13 -11 32 -3 20 8
-10 10 -93 13 -108 4z"/>
<path d="M18838 8923 c12 -2 32 -2 45 0 12 2 2 4 -23 4 -25 0 -35 -2 -22 -4z"/>
<path d="M8035 8900 c-3 -5 1 -10 9 -10 8 0 18 5 21 10 3 6 -1 10 -9 10 -8 0
-18 -4 -21 -10z"/>
<path d="M15915 8900 c-4 -6 6 -10 22 -10 22 0 25 2 13 10 -19 12 -27 12 -35
0z"/>
<path d="M18800 8899 c0 -5 5 -7 10 -4 6 3 10 8 10 11 0 2 -4 4 -10 4 -5 0
-10 -5 -10 -11z"/>
<path d="M18908 8903 c6 -2 18 -2 25 0 6 3 1 5 -13 5 -14 0 -19 -2 -12 -5z"/>
<path d="M18960 8900 c0 -5 10 -10 23 -10 18 0 19 2 7 10 -19 13 -30 13 -30 0z"/>
<path d="M8000 8890 c0 -5 5 -10 11 -10 5 0 7 5 4 10 -3 6 -8 10 -11 10 -2 0
-4 -4 -4 -10z"/>
<path d="M19038 8888 c5 -5 16 -8 23 -6 8 3 3 7 -10 11 -17 4 -21 3 -13 -5z"/>
<path d="M8088 8883 c6 -2 18 -2 25 0 6 3 1 5 -13 5 -14 0 -19 -2 -12 -5z"/>
<path d="M16028 8883 c7 -3 16 -2 19 1 4 3 -2 6 -13 5 -11 0 -14 -3 -6 -6z"/>
<path d="M8160 8850 c0 -11 4 -20 9 -20 17 0 19 15 5 28 -12 11 -14 9 -14 -8z"/>
<path d="M19125 8860 c3 -5 16 -10 28 -9 21 0 21 1 2 9 -28 12 -37 12 -30 0z"/>
<path d="M15757 8843 c-3 -5 15 -8 39 -8 24 0 44 3 44 8 0 4 -18 7 -39 7 -22
0 -42 -3 -44 -7z"/>
<path d="M19191 8841 c-8 -5 -9 -11 -3 -15 5 -3 12 1 16 9 6 17 6 18 -13 6z"/>
<path d="M26230 8828 c0 -9 -6 -19 -12 -21 -10 -4 -10 -6 0 -6 14 -1 28 26 18
36 -3 4 -6 -1 -6 -9z"/>
<path d="M8180 8815 c-18 -10 -20 -14 -8 -15 9 0 20 5 23 10 4 6 16 8 28 5 17
-5 19 -4 7 4 -19 13 -20 13 -50 -4z"/>
<path d="M19120 8820 c0 -5 5 -10 11 -10 5 0 7 5 4 10 -3 6 -8 10 -11 10 -2 0
-4 -4 -4 -10z"/>
<path d="M19228 8823 c6 -2 18 -2 25 0 6 3 1 5 -13 5 -14 0 -19 -2 -12 -5z"/>
<path d="M4665 8810 c-3 -5 -2 -10 4 -10 5 0 13 5 16 10 3 6 2 10 -4 10 -5 0
-13 -4 -16 -10z"/>
<path d="M15750 8810 c-11 -7 -5 -8 20 -4 43 8 51 14 19 14 -13 0 -31 -5 -39
-10z"/>
<path d="M19311 8816 c2 -2 20 -6 39 -10 25 -4 31 -3 20 4 -14 9 -69 15 -59 6z"/>
<path d="M19158 8803 c7 -3 16 -2 19 1 4 3 -2 6 -13 5 -11 0 -14 -3 -6 -6z"/>
<path d="M19440 8780 c0 -5 5 -10 11 -10 5 0 7 5 4 10 -3 6 -8 10 -11 10 -2 0
-4 -4 -4 -10z"/>
<path d="M19517 8759 c7 -7 15 -10 18 -7 3 3 -2 9 -12 12 -14 6 -15 5 -6 -5z"/>
<path d="M15548 8753 c7 -3 16 -2 19 1 4 3 -2 6 -13 5 -11 0 -14 -3 -6 -6z"/>
<path d="M8350 8740 c-8 -5 -10 -10 -5 -10 6 0 17 5 25 10 8 5 11 10 5 10 -5
0 -17 -5 -25 -10z"/>
<path d="M15555 8730 c-13 -5 -14 -9 -5 -9 8 0 24 4 35 9 13 5 14 9 5 9 -8 0
-24 -4 -35 -9z"/>
<path d="M19453 8733 c9 -2 25 -2 35 0 9 3 1 5 -18 5 -19 0 -27 -2 -17 -5z"/>
<path d="M19532 8729 c7 -5 36 -8 63 -8 60 1 50 6 -23 12 -32 2 -48 1 -40 -4z"/>
<path d="M8405 8710 c-3 -5 1 -10 9 -10 9 0 16 5 16 10 0 6 -4 10 -9 10 -6 0
-13 -4 -16 -10z"/>
<path d="M15385 8680 c-3 -5 -1 -10 4 -10 6 0 11 5 11 10 0 6 -2 10 -4 10 -3
0 -8 -4 -11 -10z"/>
<path d="M8400 8670 c0 -5 5 -10 11 -10 5 0 7 5 4 10 -3 6 -8 10 -11 10 -2 0
-4 -4 -4 -10z"/>
<path d="M8440 8676 c0 -2 9 -6 20 -9 11 -3 20 -1 20 4 0 5 -9 9 -20 9 -11 0
-20 -2 -20 -4z"/>
<path d="M15400 8659 c-19 -10 -29 -19 -23 -19 19 0 63 22 63 32 0 10 2 11
-40 -13z"/>
<path d="M19790 8676 c0 -2 13 -6 29 -8 17 -2 28 -1 25 4 -5 8 -54 12 -54 4z"/>
<path d="M26056 8659 c12 -13 20 -16 22 -9 3 7 -2 16 -9 21 -25 16 -32 9 -13
-12z"/>
<path d="M8485 8650 c-3 -6 1 -7 9 -4 18 7 21 14 7 14 -6 0 -13 -4 -16 -10z"/>
<path d="M19873 8653 c9 -2 23 -2 30 0 6 3 -1 5 -18 5 -16 0 -22 -2 -12 -5z"/>
<path d="M20008 8608 c6 -6 18 -8 28 -6 14 3 12 5 -9 10 -19 3 -25 2 -19 -4z"/>
<path d="M15207 8595 c-21 -7 -42 -17 -45 -21 -4 -4 1 -4 11 -1 10 4 24 7 31
7 7 0 21 7 32 15 23 18 19 18 -29 0z"/>
<path d="M25955 8600 c-3 -5 -1 -10 4 -10 6 0 11 5 11 10 0 6 -2 10 -4 10 -3
0 -8 -4 -11 -10z"/>
<path d="M20115 8580 c11 -5 27 -9 35 -9 9 0 8 4 -5 9 -11 5 -27 9 -35 9 -9 0
-8 -4 5 -9z"/>
<path d="M25911 8571 c-10 -7 -7 -9 12 -8 14 1 23 5 20 10 -6 9 -15 9 -32 -2z"/>
<path d="M15238 8563 c7 -3 16 -2 19 1 4 3 -2 6 -13 5 -11 0 -14 -3 -6 -6z"/>
<path d="M8657 8539 c-17 -10 -16 -13 17 -35 19 -13 43 -24 53 -23 14 0 13 2
-5 10 -31 12 -50 31 -44 47 4 14 2 15 -21 1z"/>
<path d="M25886 8542 c-2 -4 4 -13 15 -20 22 -14 25 -7 5 14 -8 8 -17 11 -20
6z"/>
<path d="M15085 8530 c-3 -5 1 -10 10 -10 9 0 13 5 10 10 -3 6 -8 10 -10 10
-2 0 -7 -4 -10 -10z"/>
<path d="M20278 8523 c6 -2 18 -2 25 0 6 3 1 5 -13 5 -14 0 -19 -2 -12 -5z"/>
<path d="M20320 8520 c0 -5 5 -10 11 -10 5 0 7 5 4 10 -3 6 -8 10 -11 10 -2 0
-4 -4 -4 -10z"/>
<path d="M25826 8505 c-25 -19 -16 -19 20 0 16 8 22 15 14 15 -8 -1 -24 -7
-34 -15z"/>
<path d="M8650 8494 c0 -8 5 -12 10 -9 6 4 8 11 5 16 -9 14 -15 11 -15 -7z"/>
<path d="M20360 8506 c0 -2 11 -6 25 -8 13 -3 22 -1 19 3 -5 9 -44 13 -44 5z"/>
<path d="M15056 8490 c6 -6 21 -6 39 -1 30 9 30 9 -9 10 -26 1 -37 -2 -30 -9z"/>
<path d="M20283 8493 c9 -2 25 -2 35 0 9 3 1 5 -18 5 -19 0 -27 -2 -17 -5z"/>
<path d="M20348 8483 c6 -2 18 -2 25 0 6 3 1 5 -13 5 -14 0 -19 -2 -12 -5z"/>
<path d="M20428 8483 c7 -3 16 -2 19 1 4 3 -2 6 -13 5 -11 0 -14 -3 -6 -6z"/>
<path d="M20480 8469 c0 -5 5 -7 10 -4 6 3 10 8 10 11 0 2 -4 4 -10 4 -5 0
-10 -5 -10 -11z"/>
<path d="M20513 8443 c9 -2 25 -2 35 0 9 3 1 5 -18 5 -19 0 -27 -2 -17 -5z"/>
<path d="M14864 8425 c-10 -8 -14 -15 -8 -15 6 0 17 7 24 15 16 19 9 19 -16 0z"/>
<path d="M20603 8427 c22 -7 35 -15 31 -19 -4 -5 -2 -8 4 -8 6 0 13 4 16 9 6
10 -47 32 -73 30 -9 0 1 -6 22 -12z"/>
<path d="M25728 8433 c7 -3 16 -2 19 1 4 3 -2 6 -13 5 -11 0 -14 -3 -6 -6z"/>
<path d="M8810 8410 c-8 -5 -10 -10 -5 -10 6 0 17 5 25 10 8 5 11 10 5 10 -5
0 -17 -5 -25 -10z"/>
<path d="M20510 8412 c0 -4 16 -8 35 -8 21 0 30 3 22 8 -16 10 -57 10 -57 0z"/>
<path d="M14893 8403 c9 -2 23 -2 30 0 6 3 -1 5 -18 5 -16 0 -22 -2 -12 -5z"/>
<path d="M14780 8380 c0 -5 -7 -10 -15 -10 -8 0 -15 -4 -15 -10 0 -16 15 -12
35 10 10 11 13 20 7 20 -7 0 -12 -4 -12 -10z"/>
<path d="M8980 8349 l25 -22 -24 6 c-18 4 -21 3 -13 -5 8 -8 18 -8 34 -1 22
10 22 10 -12 27 l-35 17 25 -22z"/>
<path d="M20848 8353 c7 -3 16 -2 19 1 4 3 -2 6 -13 5 -11 0 -14 -3 -6 -6z"/>
<path d="M25615 8348 c11 -6 23 -16 27 -22 4 -6 11 -7 15 -2 10 9 -25 36 -46
36 -12 -1 -11 -3 4 -12z"/>
<path d="M20800 8340 c0 -5 7 -7 15 -4 8 4 15 8 15 10 0 2 -7 4 -15 4 -8 0
-15 -4 -15 -10z"/>
<path d="M20877 8343 c-3 -5 9 -9 26 -10 26 -1 28 0 12 7 -26 11 -33 12 -38 3z"/>
<path d="M14740 8330 c-13 -8 -12 -10 3 -10 9 0 17 5 17 10 0 12 -1 12 -20 0z"/>
<path d="M14698 8323 c7 -3 16 -2 19 1 4 3 -2 6 -13 5 -11 0 -14 -3 -6 -6z"/>
<path d="M20948 8323 c7 -3 16 -2 19 1 4 3 -2 6 -13 5 -11 0 -14 -3 -6 -6z"/>
<path d="M9046 8294 c-7 -26 7 -54 26 -54 6 0 5 7 -2 15 -7 8 -10 25 -6 40 4
14 2 25 -3 25 -5 0 -12 -12 -15 -26z"/>
<path d="M21040 8298 c0 -14 8 -18 33 -17 27 2 28 2 7 6 -14 3 -28 10 -32 17
-5 7 -8 5 -8 -6z"/>
<path d="M25496 8295 c-11 -8 -15 -15 -9 -15 6 0 16 7 23 15 16 19 11 19 -14
0z"/>
<path d="M9075 8280 c-3 -4 2 -11 11 -14 22 -8 34 -7 34 3 0 12 -39 21 -45 11z"/>
<path d="M14600 8280 c-13 -9 -13 -11 0 -20 15 -10 25 0 18 20 -2 6 -8 6 -18
0z"/>
<path d="M21145 8260 c3 -5 16 -10 28 -9 21 0 21 1 2 9 -28 12 -37 12 -30 0z"/>
<path d="M21068 8253 c7 -3 16 -2 19 1 4 3 -2 6 -13 5 -11 0 -14 -3 -6 -6z"/>
<path d="M21108 8243 c6 -2 18 -2 25 0 6 3 1 5 -13 5 -14 0 -19 -2 -12 -5z"/>
<path d="M21208 8243 c6 -2 18 -2 25 0 6 3 1 5 -13 5 -14 0 -19 -2 -12 -5z"/>
<path d="M25418 8243 c7 -3 16 -2 19 1 4 3 -2 6 -13 5 -11 0 -14 -3 -6 -6z"/>
<path d="M21313 8203 c9 -2 23 -2 30 0 6 3 -1 5 -18 5 -16 0 -22 -2 -12 -5z"/>
<path d="M14445 8190 c-3 -5 -1 -10 4 -10 6 0 11 5 11 10 0 6 -2 10 -4 10 -3
0 -8 -4 -11 -10z"/>
<path d="M21373 8193 c9 -2 23 -2 30 0 6 3 -1 5 -18 5 -16 0 -22 -2 -12 -5z"/>
<path d="M25255 8180 c-13 -6 -15 -9 -5 -9 8 0 22 4 30 9 18 12 2 12 -25 0z"/>
<path d="M14455 8170 c-16 -7 -17 -9 -3 -9 9 -1 20 4 23 9 7 11 7 11 -20 0z"/>
<path d="M21317 8173 c-3 -5 10 -8 29 -9 21 0 30 3 22 8 -16 10 -45 10 -51 1z"/>
<path d="M21438 8163 c7 -3 16 -2 19 1 4 3 -2 6 -13 5 -11 0 -14 -3 -6 -6z"/>
<path d="M14366 8145 c-3 -9 0 -15 9 -15 16 0 20 16 6 24 -5 3 -11 -1 -15 -9z"/>
<path d="M21678 8118 c5 -5 16 -8 23 -6 8 3 3 7 -10 11 -17 4 -21 3 -13 -5z"/>
<path d="M25148 8123 c7 -3 16 -2 19 1 4 3 -2 6 -13 5 -11 0 -14 -3 -6 -6z"/>
<path d="M9280 8110 c0 -5 5 -10 11 -10 5 0 7 5 4 10 -3 6 -8 10 -11 10 -2 0
-4 -4 -4 -10z"/>
<path d="M14290 8106 c0 -2 7 -7 16 -10 8 -3 12 -2 9 4 -6 10 -25 14 -25 6z"/>
<path d="M14369 8093 c-13 -17 -13 -17 6 -3 11 8 22 16 24 17 2 2 0 3 -6 3 -6
0 -17 -8 -24 -17z"/>
<path d="M21745 8100 c27 -12 43 -12 25 0 -8 5 -22 9 -30 9 -10 0 -8 -3 5 -9z"/>
<path d="M25030 8090 c-18 -12 -2 -12 25 0 13 6 15 9 5 9 -8 0 -22 -4 -30 -9z"/>
<path d="M25110 8090 c-11 -8 -7 -9 15 -4 37 8 45 14 19 14 -10 0 -26 -5 -34
-10z"/>
<path d="M9308 8083 c7 -3 16 -2 19 1 4 3 -2 6 -13 5 -11 0 -14 -3 -6 -6z"/>
<path d="M9346 8081 c-4 -7 -5 -15 -2 -18 9 -9 19 4 14 18 -4 11 -6 11 -12 0z"/>
<path d="M21718 8083 c7 -3 16 -2 19 1 4 3 -2 6 -13 5 -11 0 -14 -3 -6 -6z"/>
<path d="M9450 8055 c7 -8 17 -15 22 -15 6 0 5 7 -2 15 -7 8 -17 15 -22 15 -6
0 -5 -7 2 -15z"/>
<path d="M21931 8049 c13 -8 88 -14 78 -5 -2 2 -24 6 -48 9 -29 4 -40 2 -30
-4z"/>
<path d="M14210 8041 c0 -10 19 -25 25 -20 1 2 -3 10 -11 17 -8 7 -14 8 -14 3z"/>
<path d="M24928 8043 c6 -2 18 -2 25 0 6 3 1 5 -13 5 -14 0 -19 -2 -12 -5z"/>
<path d="M9440 8031 c0 -5 5 -13 10 -16 6 -3 10 -2 10 4 0 5 -4 13 -10 16 -5
3 -10 2 -10 -4z"/>
<path d="M14160 8029 c0 -5 5 -7 10 -4 6 3 10 8 10 11 0 2 -4 4 -10 4 -5 0
-10 -5 -10 -11z"/>
<path d="M9480 8020 c-17 -11 -17 -11 34 -14 36 -3 37 -2 15 10 -29 16 -30 16
-49 4z"/>
<path d="M22020 8020 c-13 -9 -13 -10 0 -10 8 0 22 5 30 10 13 9 13 10 0 10
-8 0 -22 -5 -30 -10z"/>
<path d="M24830 8020 c-12 -8 -10 -10 8 -10 13 0 20 4 17 10 -7 12 -6 12 -25
0z"/>
<path d="M21978 8013 c7 -3 16 -2 19 1 4 3 -2 6 -13 5 -11 0 -14 -3 -6 -6z"/>
<path d="M14188 8003 c7 -3 16 -2 19 1 4 3 -2 6 -13 5 -11 0 -14 -3 -6 -6z"/>
<path d="M14050 7974 c-17 -9 -20 -14 -9 -14 9 0 22 7 29 15 15 18 13 18 -20
-1z"/>
<path d="M9600 7966 c0 -2 7 -7 16 -10 8 -3 12 -2 9 4 -6 10 -25 14 -25 6z"/>
<path d="M22350 7960 l-25 -8 25 0 c14 0 36 4 50 8 l25 8 -25 0 c-14 0 -36 -4
-50 -8z"/>
<path d="M22523 7943 c9 -2 23 -2 30 0 6 3 -1 5 -18 5 -16 0 -22 -2 -12 -5z"/>
<path d="M24618 7943 c7 -3 16 -2 19 1 4 3 -2 6 -13 5 -11 0 -14 -3 -6 -6z"/>
<path d="M9605 7931 c8 -7 83 -7 79 1 -3 4 -22 6 -44 5 -21 -1 -37 -3 -35 -6z"/>
<path d="M14030 7930 c-9 -6 -10 -10 -3 -10 6 0 15 5 18 10 8 12 4 12 -15 0z"/>
<path d="M22453 7933 c9 -2 23 -2 30 0 6 3 -1 5 -18 5 -16 0 -22 -2 -12 -5z"/>
<path d="M24544 7931 c3 -5 15 -7 26 -4 28 7 25 13 -6 13 -14 0 -23 -4 -20 -9z"/>
<path d="M22398 7923 c6 -2 18 -2 25 0 6 3 1 5 -13 5 -14 0 -19 -2 -12 -5z"/>
<path d="M22648 7923 c6 -2 18 -2 25 0 6 3 1 5 -13 5 -14 0 -19 -2 -12 -5z"/>
<path d="M9695 7900 c3 -5 11 -10 16 -10 6 0 7 5 4 10 -3 6 -11 10 -16 10 -6
0 -7 -4 -4 -10z"/>
<path d="M13897 7888 c-14 -8 -16 -13 -6 -24 6 -8 17 -14 23 -14 6 0 4 5 -4
10 -13 9 -13 11 0 19 20 14 9 22 -13 9z"/>
<path d="M9730 7881 c0 -5 8 -11 18 -14 9 -2 26 -8 37 -12 11 -4 7 2 -10 14
-32 23 -45 26 -45 12z"/>
<path d="M23015 7880 c30 -8 162 -13 154 -6 -2 2 -44 5 -94 8 -49 3 -76 2 -60
-2z"/>
<path d="M24152 7883 c-10 -4 -10 -8 -1 -19 9 -11 8 -14 -1 -14 -8 0 -11 -2
-9 -5 3 -2 18 0 35 4 24 8 25 9 7 10 -13 1 -23 5 -23 10 0 5 10 12 23 14 18 4
19 4 2 5 -11 0 -26 -2 -33 -5z"/>
<path d="M24018 7873 c12 -2 32 -2 45 0 12 2 2 4 -23 4 -25 0 -35 -2 -22 -4z"/>
<path d="M23175 7860 c-27 -7 -27 -8 -5 -8 14 0 36 4 50 8 20 6 21 8 5 8 -11
0 -33 -4 -50 -8z"/>
<path d="M23820 7866 c0 -2 7 -7 16 -10 8 -3 12 -2 9 4 -6 10 -25 14 -25 6z"/>
<path d="M23270 7850 c-8 -5 -10 -10 -5 -10 6 0 17 5 25 10 8 5 11 10 5 10 -5
0 -17 -5 -25 -10z"/>
<path d="M23873 7853 c9 -2 25 -2 35 0 9 3 1 5 -18 5 -19 0 -27 -2 -17 -5z"/>
<path d="M23996 7852 c-2 -4 14 -6 37 -4 68 5 76 10 20 11 -28 0 -54 -2 -57
-7z"/>
<path d="M9698 7843 c7 -3 16 -2 19 1 4 3 -2 6 -13 5 -11 0 -14 -3 -6 -6z"/>
<path d="M23048 7843 c7 -3 16 -2 19 1 4 3 -2 6 -13 5 -11 0 -14 -3 -6 -6z"/>
<path d="M9850 7805 c-14 -16 -3 -20 19 -6 8 5 9 11 3 15 -5 3 -15 -1 -22 -9z"/>
<path d="M13735 7800 c3 -5 11 -10 16 -10 6 0 7 5 4 10 -3 6 -11 10 -16 10 -6
0 -7 -4 -4 -10z"/>
<path d="M13710 7780 c20 -13 33 -13 25 0 -3 6 -14 10 -23 10 -15 0 -15 -2 -2
-10z"/>
<path d="M9930 7770 c0 -5 12 -10 28 -9 24 0 25 1 7 9 -27 12 -35 12 -35 0z"/>
<path d="M9888 7763 c7 -3 16 -2 19 1 4 3 -2 6 -13 5 -11 0 -14 -3 -6 -6z"/>
<path d="M10010 7725 c7 -8 17 -12 22 -9 6 4 5 10 -3 15 -22 14 -33 10 -19 -6z"/>
<path d="M13580 7723 c21 -10 9 -25 -15 -19 -34 9 -32 0 4 -12 25 -9 28 -8 27
11 -1 11 -7 22 -14 23 -7 1 -8 0 -2 -3z"/>
<path d="M10030 7701 c-8 -6 -18 -7 -22 -5 -4 3 -8 -2 -8 -10 0 -12 10 -16 36
-16 23 0 33 4 28 11 -3 6 0 15 7 20 11 7 9 9 -6 9 -11 0 -27 -4 -35 -9z"/>
<path d="M10160 7650 c0 -5 5 -10 11 -10 5 0 7 5 4 10 -3 6 -8 10 -11 10 -2 0
-4 -4 -4 -10z"/>
<path d="M13410 7646 c0 -2 7 -6 15 -10 8 -3 15 -1 15 4 0 6 -7 10 -15 10 -8
0 -15 -2 -15 -4z"/>
<path d="M10210 7636 c0 -2 7 -9 15 -16 9 -7 15 -8 15 -2 0 5 -7 12 -15 16 -8
3 -15 4 -15 2z"/>
<path d="M13373 7630 c-13 -5 -23 -12 -23 -15 0 -9 16 -5 36 10 22 16 19 18
-13 5z"/>
<path d="M10180 7610 c8 -5 22 -9 30 -9 10 0 8 3 -5 9 -27 12 -43 12 -25 0z"/>
<path d="M13395 7610 c-13 -6 -15 -9 -5 -9 8 0 22 4 30 9 18 12 2 12 -25 0z"/>
<path d="M10320 7567 c0 -9 15 -17 40 -21 23 -3 38 -10 35 -15 -3 -5 5 -7 17
-3 22 5 22 5 -2 15 -24 9 -66 27 -82 35 -5 2 -8 -3 -8 -11z"/>
<path d="M13220 7555 c-14 -17 -3 -20 20 -5 9 5 19 5 27 -2 9 -7 13 -7 13 0 0
9 -22 22 -40 22 -4 0 -13 -7 -20 -15z"/>
<path d="M13095 7505 c-16 -13 -25 -24 -19 -25 10 0 54 36 54 45 0 8 -4 6 -35
-20z"/>
<path d="M10508 7483 c6 -2 18 -2 25 0 6 3 1 5 -13 5 -14 0 -19 -2 -12 -5z"/>
<path d="M13105 7470 c3 -5 8 -10 11 -10 2 0 4 5 4 10 0 6 -5 10 -11 10 -5 0
-7 -4 -4 -10z"/>
<path d="M10588 7463 c7 -3 16 -2 19 1 4 3 -2 6 -13 5 -11 0 -14 -3 -6 -6z"/>
<path d="M10520 7456 c0 -2 11 -6 25 -8 14 -3 25 -1 25 3 0 5 -11 9 -25 9 -14
0 -25 -2 -25 -4z"/>
<path d="M10620 7450 c0 -5 7 -10 16 -10 8 0 12 5 9 10 -3 6 -10 10 -16 10 -5
0 -9 -4 -9 -10z"/>
<path d="M12945 7450 c-8 -13 5 -13 25 0 13 8 13 10 -2 10 -9 0 -20 -4 -23
-10z"/>
<path d="M13050 7450 c-12 -8 -11 -10 8 -10 12 0 22 5 22 10 0 13 -11 13 -30
0z"/>
<path d="M10568 7423 c6 -2 18 -2 25 0 6 3 1 5 -13 5 -14 0 -19 -2 -12 -5z"/>
<path d="M12830 7400 c0 -13 20 -13 40 0 12 8 9 10 -12 10 -16 0 -28 -4 -28
-10z"/>
<path d="M10771 7381 c-8 -6 6 -9 40 -8 40 0 47 2 29 8 -35 10 -53 10 -69 0z"/>
<path d="M12725 7380 c-17 -7 -15 -9 13 -9 17 -1 32 4 32 9 0 12 -17 12 -45 0z"/>
<path d="M12796 7371 c-3 -4 6 -6 19 -3 14 2 25 6 25 8 0 8 -39 4 -44 -5z"/>
<path d="M10960 7330 c0 -6 7 -10 15 -10 8 0 15 2 15 4 0 2 -7 6 -15 10 -8 3
-15 1 -15 -4z"/>
<path d="M12555 7321 c3 -2 13 -5 23 -6 9 -1 27 -5 40 -9 13 -4 22 -3 22 3 0
5 -12 12 -27 14 -34 7 -65 6 -58 -2z"/>
<path d="M11028 7313 c6 -2 18 -2 25 0 6 3 1 5 -13 5 -14 0 -19 -2 -12 -5z"/>
<path d="M10968 7293 c7 -3 16 -2 19 1 4 3 -2 6 -13 5 -11 0 -14 -3 -6 -6z"/>
<path d="M11115 7290 c-3 -6 1 -7 9 -4 18 7 21 14 7 14 -6 0 -13 -4 -16 -10z"/>
<path d="M12428 7293 c7 -3 16 -2 19 1 4 3 -2 6 -13 5 -11 0 -14 -3 -6 -6z"/>
<path d="M12598 7283 c7 -3 16 -2 19 1 4 3 -2 6 -13 5 -11 0 -14 -3 -6 -6z"/>
<path d="M11405 7240 c28 -5 66 -8 85 -8 28 1 25 2 -15 8 -27 5 -66 8 -85 8
-28 -1 -25 -2 15 -8z"/>
<path d="M12173 7243 c9 -2 23 -2 30 0 6 3 -1 5 -18 5 -16 0 -22 -2 -12 -5z"/>
<path d="M11608 7223 c7 -3 16 -2 19 1 4 3 -2 6 -13 5 -11 0 -14 -3 -6 -6z"/>
<path d="M11483 7213 c9 -2 23 -2 30 0 6 3 -1 5 -18 5 -16 0 -22 -2 -12 -5z"/>
<path d="M12156 7211 c-4 -5 3 -7 14 -4 23 6 26 13 6 13 -8 0 -17 -4 -20 -9z"/>
<path d="M11778 7203 c12 -2 32 -2 45 0 12 2 2 4 -23 4 -25 0 -35 -2 -22 -4z"/>
<path d="M12058 7203 c7 -3 16 -2 19 1 4 3 -2 6 -13 5 -11 0 -14 -3 -6 -6z"/>
<path d="M3120 7104 c0 -14 3 -14 15 -4 8 7 15 14 15 16 0 2 -7 4 -15 4 -8 0
-15 -7 -15 -16z"/>
<path d="M36240 7050 c0 -6 -47 -10 -120 -10 -119 0 -120 0 -120 -23 0 -23 -3
-24 -117 -30 -66 -4 -119 -11 -121 -17 -2 -5 -21 -10 -43 -10 -28 0 -39 -4
-39 -15 0 -12 -16 -15 -80 -15 -64 0 -80 -3 -80 -15 0 -11 -11 -15 -40 -15
-22 0 -40 -4 -40 -10 0 -5 -18 -10 -40 -10 -35 0 -40 -3 -40 -23 0 -22 -5 -25
-77 -33 -70 -8 -78 -11 -81 -31 -3 -20 -9 -23 -48 -23 -38 0 -49 -5 -84 -40
-32 -32 -47 -40 -76 -40 -34 0 -91 -24 -106 -45 -5 -6 -8 -4 -8 4 0 9 -9 4
-25 -13 -13 -14 -30 -26 -37 -26 -10 0 -10 -2 0 -9 11 -7 11 -9 -2 -14 -11 -5
-16 -1 -16 13 0 11 -7 20 -15 20 -8 0 -15 -7 -15 -16 0 -9 -9 -18 -20 -21 -13
-4 -20 -14 -20 -30 0 -13 -4 -22 -9 -19 -5 3 -20 -3 -34 -14 -14 -11 -32 -20
-40 -20 -9 0 -19 -4 -22 -10 -3 -5 -19 -10 -36 -10 -19 0 -29 -5 -29 -15 0 -9
-7 -18 -15 -21 -8 -3 -24 -22 -36 -42 l-23 -37 -6 30 -6 30 -17 -32 c-10 -18
-31 -40 -47 -48 -17 -9 -30 -20 -30 -25 0 -6 -11 -16 -25 -22 -16 -7 -21 -14
-14 -18 7 -5 5 -9 -5 -13 -11 -5 -16 -1 -16 13 0 26 -26 26 -33 0 -3 -11 -12
-20 -21 -20 -15 0 -20 -11 -17 -37 1 -6 -8 -14 -19 -18 -11 -4 -27 -20 -35
-36 -9 -16 -29 -36 -45 -44 -17 -9 -30 -19 -30 -24 0 -5 -12 -12 -27 -15 -26
-7 -42 -20 -139 -117 -40 -40 -64 -59 -74 -59 -5 0 -10 -4 -10 -10 0 -5 -13
-23 -30 -40 -16 -17 -30 -35 -30 -40 0 -5 -17 -21 -37 -36 -24 -16 -30 -23
-16 -19 12 3 24 2 27 -3 8 -13 -21 -35 -34 -27 -14 9 -50 -32 -50 -56 0 -10
-13 -25 -28 -33 -15 -8 -33 -26 -40 -40 -6 -14 -24 -32 -40 -40 -15 -8 -33
-26 -40 -40 -6 -14 -24 -32 -40 -40 -15 -8 -33 -26 -40 -40 -6 -14 -24 -32
-40 -40 -34 -17 -50 -46 -26 -46 23 0 0 -37 -34 -54 -16 -8 -33 -26 -40 -40
-6 -14 -26 -33 -44 -42 -18 -10 -27 -19 -20 -21 6 -3 12 -11 12 -19 0 -9 -4
-12 -10 -9 -5 3 -21 -5 -35 -19 -26 -26 -33 -42 -13 -30 7 4 8 3 4 -4 -10 -17
-26 -15 -26 4 0 8 -5 12 -10 9 -6 -4 -8 -11 -5 -16 10 -15 -46 -99 -76 -115
-16 -8 -30 -19 -30 -24 -1 -6 -3 -14 -4 -20 -1 -5 -3 -14 -4 -18 0 -5 -11 -13
-22 -18 -12 -6 -27 -26 -33 -44 -7 -24 -21 -40 -43 -50 -37 -17 -39 -22 -18
-44 13 -13 13 -15 -5 -21 -11 -4 -27 -19 -35 -35 -8 -16 -26 -35 -39 -42 -26
-14 -57 -56 -91 -122 -11 -21 -34 -48 -52 -58 -18 -11 -35 -28 -38 -39 -4 -11
-17 -27 -31 -35 -28 -19 -31 -31 -6 -36 13 -3 8 -10 -20 -27 -20 -12 -40 -31
-43 -42 -4 -10 -15 -19 -25 -19 -10 0 -27 -15 -39 -32 -18 -30 -19 -34 -4 -39
15 -5 14 -9 -8 -30 -38 -36 -68 -59 -78 -59 -4 0 -13 -11 -19 -25 -6 -14 -16
-25 -22 -25 -5 0 -17 -14 -25 -30 -9 -17 -27 -36 -41 -42 -14 -7 -32 -24 -40
-40 -8 -15 -29 -35 -47 -45 -30 -16 -30 -18 -9 -21 30 -5 28 -14 -8 -35 -16
-10 -30 -22 -30 -28 0 -5 -7 -9 -15 -9 -9 0 -19 -8 -22 -17 -7 -19 -23 -38
-70 -86 -55 -55 -70 -67 -82 -67 -6 0 -11 -7 -11 -15 0 -9 -7 -18 -15 -21 -8
-3 -24 -22 -36 -42 -17 -28 -24 -33 -27 -19 -2 9 -6 17 -9 17 -5 0 -40 -32
-120 -113 -14 -13 -32 -31 -40 -40 -9 -8 -27 -26 -40 -40 -14 -13 -32 -31 -40
-40 -9 -8 -27 -27 -41 -43 -23 -25 -26 -26 -32 -10 -5 16 -14 11 -61 -35 -30
-30 -63 -68 -74 -84 l-19 -30 -6 30 -6 30 -17 -32 c-10 -18 -31 -40 -49 -49
-17 -9 -27 -19 -22 -23 24 -17 8 -26 -40 -23 -47 3 -54 1 -59 -17 -3 -12 -12
-21 -21 -21 -9 0 -16 -6 -16 -12 0 -9 -3 -9 -9 1 -7 11 -13 7 -25 -17 -19 -38
-56 -62 -56 -37 0 14 -4 14 -32 -2 -18 -10 -34 -21 -36 -25 -2 -5 -8 -8 -14
-8 -5 0 -24 -15 -40 -32 -29 -31 -31 -32 -38 -13 -6 18 -8 18 -32 -8 -14 -15
-30 -27 -37 -27 -6 0 -11 -7 -11 -15 0 -11 -11 -15 -40 -15 -29 0 -40 -4 -40
-15 0 -11 -11 -15 -40 -15 -22 0 -40 -4 -40 -10 0 -5 -18 -10 -40 -10 -22 0
-40 -4 -40 -10 0 -5 -16 -10 -36 -10 -27 0 -37 -5 -41 -20 -4 -16 -14 -20 -44
-20 -22 0 -39 -4 -39 -10 0 -5 -18 -10 -40 -10 -29 0 -40 -4 -40 -15 0 -11
-11 -15 -40 -15 -29 0 -40 -4 -40 -15 0 -12 -16 -15 -80 -15 -47 0 -80 -4 -80
-10 0 -5 -18 -10 -39 -10 -22 0 -43 -4 -46 -10 -4 -6 -68 -10 -161 -10 -147 0
-154 -1 -154 -20 0 -20 -7 -20 -360 -20 -353 0 -360 0 -360 20 0 17 -7 20 -39
20 -22 0 -43 5 -46 10 -4 6 -68 10 -161 10 -96 0 -154 4 -154 10 0 6 -47 10
-120 10 -100 0 -120 3 -120 15 0 11 -11 15 -39 15 -25 0 -41 5 -45 15 -4 11
-23 15 -81 15 -41 0 -75 4 -75 10 0 5 -35 10 -77 12 -73 3 -77 4 -83 28 l-6
25 -157 3 c-88 1 -157 7 -157 12 0 5 -35 10 -77 12 -77 3 -78 3 -81 31 l-3 27
-120 0 c-112 0 -119 1 -119 20 0 18 -7 20 -80 20 -73 0 -80 2 -80 20 0 19 -7
20 -120 20 -73 0 -120 4 -120 10 0 6 -32 10 -75 10 l-75 0 -6 30 c-7 31 -37
42 -47 18 -4 -10 -6 -10 -6 0 -1 6 -6 12 -11 12 -6 0 -9 -6 -8 -12 2 -8 -9
-13 -29 -13 -23 -1 -33 4 -33 15 0 12 -2 12 -9 1 -6 -9 -11 -10 -15 -2 -4 6
-25 11 -47 11 -32 0 -39 3 -39 20 0 19 -7 20 -120 20 -113 0 -120 1 -120 20 0
19 -7 20 -200 20 -193 0 -200 1 -200 20 0 19 -7 20 -160 20 -153 0 -160 1
-160 20 0 19 -7 20 -200 20 -193 0 -200 -1 -200 -20 0 -19 -7 -20 -200 -20
-193 0 -200 -1 -200 -20 0 -19 -7 -20 -160 -20 -153 0 -160 -1 -160 -20 0 -17
-7 -20 -40 -20 -33 0 -40 -3 -40 -20 0 -18 -7 -20 -80 -20 -47 0 -80 -4 -80
-10 0 -5 9 -10 20 -10 11 0 20 -4 20 -10 0 -6 -27 -10 -60 -10 -53 0 -60 -2
-60 -20 0 -18 -7 -20 -80 -20 -73 0 -80 -2 -80 -20 0 -17 -7 -20 -45 -20 -33
0 -50 -5 -62 -20 -10 -11 -28 -20 -40 -20 -21 0 -28 -10 -24 -32 0 -5 -5 -8
-12 -8 -8 0 -22 -9 -32 -20 -14 -16 -20 -17 -26 -8 -7 10 -12 11 -29 1 -11 -7
-27 -13 -35 -13 -8 0 -15 -9 -15 -20 0 -17 -7 -20 -40 -20 -34 0 -40 -3 -40
-21 0 -19 -4 -20 -36 -15 -32 7 -39 3 -74 -33 -22 -22 -34 -41 -27 -44 6 -2 2
-6 -10 -9 -16 -4 -20 -2 -16 8 6 16 -22 20 -32 4 -3 -5 -15 -10 -26 -10 -11 0
-38 -18 -60 -41 -35 -36 -39 -38 -39 -18 0 21 -1 21 -25 -5 -14 -15 -25 -31
-25 -35 0 -5 -13 -14 -29 -21 -16 -6 -32 -18 -35 -26 -3 -8 -15 -14 -26 -14
-12 0 -39 -18 -60 -40 -36 -37 -39 -38 -42 -18 -3 21 -4 21 -21 4 -11 -12 -16
-26 -12 -40 4 -14 3 -17 -3 -8 -6 9 -11 6 -20 -13 -7 -14 -20 -25 -31 -25 -11
0 -26 -10 -32 -22 -17 -32 -28 -38 -79 -38 -36 0 -49 -5 -65 -26 -11 -14 -28
-34 -37 -45 -10 -10 -18 -26 -18 -34 0 -8 -7 -15 -15 -15 -8 0 -25 -10 -37
-22 -20 -20 -22 -20 -28 -4 -5 16 -10 14 -40 -15 -22 -20 -30 -34 -22 -36 17
-6 15 -30 -3 -37 -11 -4 -15 1 -15 17 -1 21 -1 22 -12 2 -16 -27 -34 -45 -47
-45 -6 0 -11 -4 -11 -10 0 -5 -11 -10 -25 -10 -14 0 -28 -6 -31 -14 -3 -8 -18
-20 -34 -26 -17 -7 -33 -24 -39 -41 -5 -16 -17 -29 -26 -29 -28 0 -77 -32
-127 -83 -39 -40 -48 -45 -48 -28 0 20 -1 20 -20 4 -13 -12 -16 -19 -8 -24 14
-9 -34 -59 -58 -59 -9 0 -33 -18 -54 -40 -28 -30 -45 -40 -69 -40 -33 0 -43
-16 -13 -22 13 -3 8 -9 -18 -23 -19 -11 -38 -18 -42 -17 -5 1 -7 -1 -7 -6 4
-24 -4 -32 -34 -32 -21 0 -39 -8 -52 -22 l-20 -23 -3 23 c-3 21 -6 20 -42 -18
-21 -22 -41 -40 -45 -40 -4 0 -20 -13 -35 -30 -15 -16 -37 -30 -48 -30 -12 0
-24 -5 -27 -10 -3 -6 -33 -10 -66 -10 l-59 0 0 -39 c0 -35 -4 -40 -45 -62 -25
-13 -45 -27 -45 -31 0 -5 -22 -8 -49 -8 -28 0 -53 -5 -56 -10 -3 -6 -15 -10
-26 -10 -12 0 -19 -7 -19 -20 0 -17 -7 -20 -45 -20 -33 0 -50 -5 -62 -20 -10
-11 -25 -20 -35 -20 -10 0 -17 -6 -15 -13 1 -8 -13 -13 -40 -15 -29 -2 -43 -8
-43 -18 0 -10 -12 -14 -40 -14 -22 0 -40 -4 -40 -10 0 -5 -35 -10 -77 -12 -73
-3 -77 -4 -83 -28 -6 -24 -10 -25 -83 -28 -71 -3 -96 -13 -64 -25 9 -4 8 -8
-3 -16 -8 -6 -66 -11 -132 -11 -98 0 -118 -3 -118 -15 0 -13 -56 -15 -440 -15
-384 0 -440 2 -440 15 0 12 -16 15 -80 15 -64 0 -80 3 -80 15 0 12 -16 15 -80
15 -73 0 -80 2 -80 20 0 18 -7 20 -80 20 -73 0 -80 2 -80 20 0 18 -7 20 -80
20 -47 0 -80 4 -80 10 0 6 -18 10 -40 10 -29 0 -40 4 -40 15 0 12 -14 15 -70
15 -56 0 -70 3 -70 15 0 11 -12 15 -50 15 -43 0 -50 3 -50 20 0 17 -7 20 -40
20 -33 0 -40 3 -40 20 0 18 -7 20 -80 20 -47 0 -80 4 -80 10 0 6 -13 10 -29
10 -19 0 -42 11 -63 30 -18 17 -40 30 -50 30 -10 0 -18 4 -18 9 0 6 -17 11
-37 13 -30 2 -38 8 -43 28 -6 24 -10 25 -85 28 -44 2 -82 6 -85 10 -14 19 -72
42 -104 42 -20 0 -36 5 -36 10 0 6 -20 31 -45 55 -33 33 -52 45 -74 45 -16 0
-33 5 -36 10 -3 6 -26 10 -51 10 -32 0 -44 4 -44 15 0 11 -11 15 -40 15 -27 0
-40 4 -39 13 6 49 0 57 -46 57 -33 0 -50 5 -62 20 -14 16 -30 20 -75 20 -55 0
-58 1 -58 25 0 22 -4 25 -35 25 -20 0 -37 6 -42 15 -5 8 -25 16 -46 17 -36 3
-37 4 -37 41 l0 37 -85 0 c-47 0 -85 3 -85 8 0 4 -13 13 -30 20 -16 7 -32 21
-35 31 -3 12 -17 18 -46 20 -34 1 -49 10 -79 41 -21 22 -46 40 -54 40 -9 0
-25 6 -36 13 -17 10 -22 9 -30 -3 -6 -10 -10 -11 -10 -2 0 6 -6 12 -13 12 -7
0 -23 9 -35 20 -12 11 -26 20 -32 20 -5 0 -10 5 -10 10 0 6 -13 10 -30 10 -23
0 -30 4 -30 20 0 17 -7 20 -39 20 -30 0 -46 7 -69 30 -32 32 -52 38 -52 18 0
-8 -3 -9 -8 -3 -10 14 -51 36 -76 41 -11 2 -26 11 -32 19 -6 8 -19 15 -28 15
-9 0 -16 8 -16 20 0 17 -7 20 -40 20 -33 0 -40 3 -40 20 0 17 -7 20 -40 20
-22 0 -40 5 -40 10 0 6 -18 10 -40 10 -25 0 -39 4 -37 12 1 6 -15 16 -36 23
-21 6 -35 14 -31 18 4 4 -6 7 -22 7 -18 0 -37 9 -48 22 -18 21 -20 21 -26 4
-6 -17 -10 -15 -43 17 -30 30 -44 37 -77 37 -22 0 -40 5 -40 10 0 6 -30 10
-70 10 -57 0 -74 4 -90 20 -11 11 -16 20 -10 20 5 0 10 5 10 10 0 6 -18 10
-40 10 -33 0 -40 3 -40 20 0 17 -7 20 -40 20 -33 0 -40 3 -40 20 0 18 -7 20
-81 20 l-81 0 -39 41 c-33 34 -39 38 -39 20 0 -18 -6 -21 -40 -21 -33 0 -40 3
-40 20 0 15 -7 20 -26 20 -20 0 -25 -4 -20 -16 4 -12 0 -15 -17 -12 -12 2 -21
9 -20 16 2 8 -11 12 -37 12 -33 0 -40 3 -40 20 0 17 -7 20 -40 20 -33 0 -40 3
-40 20 0 19 -7 20 -160 20 -100 0 -160 4 -160 10 0 6 -15 10 -34 10 -19 0 -38
5 -41 10 -3 6 -42 10 -86 10 -72 0 -79 2 -79 19 0 19 -10 20 -374 19 -312 0
-375 -2 -380 -14 -7 -19 -46 -18 -46 1 0 13 -24 15 -160 15 -136 0 -160 -2
-160 -15 0 -11 -11 -15 -40 -15 -29 0 -40 -4 -40 -15 0 -12 -20 -15 -120 -15
-73 0 -120 -4 -120 -10 0 -6 -47 -10 -120 -10 -113 0 -120 -1 -120 -20 0 -18
-7 -20 -80 -20 -73 0 -80 -2 -80 -20 0 -18 -7 -20 -80 -20 -64 0 -80 -3 -80
-15 0 -11 -11 -15 -40 -15 -29 0 -40 -4 -40 -15 0 -12 -16 -15 -80 -15 -44 0
-80 -4 -80 -10 0 -5 -35 -10 -77 -12 -73 -3 -77 -4 -83 -28 -6 -24 -10 -25
-83 -28 -72 -3 -77 -4 -83 -27 -6 -24 -10 -25 -80 -25 -59 0 -74 -3 -74 -15 0
-11 -12 -15 -50 -15 -28 0 -59 -4 -70 -10 -11 -5 -29 -14 -40 -20 -11 -5 -33
-10 -50 -10 -23 0 -30 -4 -30 -20 0 -17 -7 -20 -40 -20 -22 0 -40 -4 -40 -10
0 -6 -33 -10 -80 -10 l-80 0 0 -30 c0 -29 -1 -30 -50 -30 -28 0 -59 -4 -70
-10 -11 -5 -29 -14 -40 -20 -11 -5 -33 -10 -50 -10 -23 0 -30 -4 -30 -20 0
-17 -7 -20 -40 -20 -36 0 -40 -2 -40 -25 0 -22 -4 -25 -40 -25 -29 0 -40 -4
-40 -15 0 -11 -11 -15 -40 -15 -22 0 -40 -4 -40 -10 0 -5 -18 -10 -40 -10 -22
0 -40 -4 -40 -10 0 -5 -16 -10 -36 -10 -27 0 -37 -5 -41 -20 -4 -16 -14 -20
-44 -20 -22 0 -39 -4 -39 -10 0 -5 -18 -10 -40 -10 -29 0 -40 -4 -40 -15 0
-11 -11 -15 -40 -15 -29 0 -40 -4 -40 -15 0 -11 -11 -15 -39 -15 -30 0 -40 -4
-44 -20 -4 -15 -14 -20 -41 -20 -29 0 -36 -4 -36 -20 0 -17 -7 -20 -41 -20
-22 0 -38 4 -34 9 13 23 -17 20 -39 -3 -13 -14 -28 -26 -35 -26 -6 0 -11 -7
-11 -15 0 -11 -11 -15 -40 -15 -29 0 -40 -4 -40 -15 0 -11 -11 -15 -40 -15
-22 0 -40 -4 -40 -10 0 -5 -18 -10 -40 -10 -29 0 -40 -4 -40 -15 0 -11 -11
-15 -40 -15 -29 0 -40 -4 -40 -15 0 -11 -11 -15 -40 -15 -39 0 -40 -1 -40 -34
l0 -34 -75 -7 c-58 -5 -77 -11 -85 -25 -8 -14 -27 -20 -85 -25 -54 -5 -75 -11
-75 -21 0 -10 -13 -14 -40 -14 -22 0 -40 -4 -40 -10 0 -5 -18 -10 -40 -10 -35
0 -40 -3 -40 -24 0 -22 -5 -24 -75 -31 -41 -4 -77 -11 -81 -16 -3 -5 2 -9 12
-9 13 0 14 -3 4 -15 -8 -9 -30 -15 -56 -15 -32 0 -44 -4 -44 -15 0 -12 -16
-15 -80 -15 -47 0 -80 -4 -80 -10 0 -5 7 -10 16 -10 14 0 14 -3 4 -15 -8 -9
-30 -15 -56 -15 -32 0 -44 -4 -44 -15 0 -12 -16 -15 -80 -15 -79 0 -80 0 -80
-25 0 -25 -1 -25 -80 -25 -64 0 -80 -3 -80 -15 0 -11 -11 -15 -40 -15 -22 0
-40 -4 -40 -10 0 -5 -17 -10 -39 -10 -30 0 -40 -4 -44 -20 -4 -15 -14 -20 -41
-20 -20 0 -36 -4 -36 -10 0 -5 -18 -10 -40 -10 -22 0 -40 -4 -40 -10 0 -5 -18
-10 -40 -10 -29 0 -40 -4 -40 -15 0 -11 -11 -15 -40 -15 -29 0 -40 -4 -40 -15
0 -12 -16 -15 -80 -15 -73 0 -80 -2 -80 -20 0 -17 -7 -20 -40 -20 -22 0 -40
-4 -40 -10 0 -6 -33 -10 -80 -10 -47 0 -80 -4 -80 -10 0 -5 -18 -10 -40 -10
-22 0 -40 -4 -40 -10 0 -6 -33 -10 -80 -10 -64 0 -80 -3 -80 -15 0 -12 -16
-15 -80 -15 -64 0 -80 -3 -80 -15 0 -13 -24 -15 -160 -15 -100 0 -160 -4 -160
-10 0 -6 47 -10 120 -10 73 0 120 -4 120 -10 0 -6 -60 -10 -159 -10 -116 0
-160 -3 -163 -12 -3 -9 -59 -13 -201 -16 -159 -4 -197 -7 -197 -18 0 -10 -13
-14 -40 -14 -29 0 -40 4 -40 15 0 11 -11 15 -40 15 -29 0 -40 -4 -40 -15 0
-13 -24 -15 -160 -15 -127 0 -160 3 -160 13 0 16 -154 27 -357 27 -109 0 -114
1 -123 22 -5 13 -9 17 -9 11 -1 -9 -23 -13 -76 -13 -68 0 -75 2 -75 20 0 19
-7 20 -120 20 -103 0 -120 2 -120 16 0 14 -10 15 -80 9 -56 -5 -80 -4 -80 4 0
6 -15 11 -34 11 -19 0 -38 4 -41 10 -3 5 -39 10 -79 10 -44 0 -77 5 -85 13
-11 9 -13 9 -7 -1 5 -9 -4 -12 -33 -12 -28 0 -41 4 -41 14 0 10 -22 16 -80 21
-44 4 -80 11 -80 16 0 5 -16 9 -35 9 -24 0 -37 6 -45 20 -9 17 -21 20 -85 20
-43 0 -75 4 -75 10 0 6 -18 10 -40 10 -22 0 -40 5 -40 10 0 6 -15 10 -34 10
-19 0 -38 5 -41 10 -3 5 -40 10 -80 10 -64 0 -76 3 -85 20 -8 14 -21 20 -45
20 -19 0 -35 5 -35 10 0 6 -33 10 -80 10 -47 0 -80 4 -80 10 0 6 -18 10 -40
10 -35 0 -40 3 -40 23 0 20 -4 22 -40 19 -25 -3 -40 0 -40 7 0 6 -15 11 -34
11 -19 0 -38 5 -41 10 -3 6 -24 10 -46 10 -26 0 -39 4 -39 14 0 10 -22 15 -80
20 -44 4 -80 12 -80 17 0 5 -16 9 -36 9 -27 0 -37 5 -41 20 -4 16 -14 20 -44
20 -22 0 -39 5 -39 10 0 6 -16 10 -36 10 -27 0 -37 5 -41 20 -5 18 -14 20 -79
20 -57 0 -76 4 -80 15 -5 12 -24 15 -85 15 -64 0 -79 3 -79 15 0 11 -11 15
-40 15 -36 0 -40 3 -40 25 0 23 -4 25 -45 25 -25 0 -45 4 -45 9 0 5 -32 12
-70 16 -39 4 -73 11 -76 16 -3 5 -23 9 -45 9 -26 0 -39 4 -39 14 0 10 -22 15
-80 20 -44 4 -80 12 -80 17 0 5 -18 9 -40 9 -22 0 -40 5 -40 10 0 6 -18 10
-40 10 -29 0 -40 4 -40 15 0 11 -11 15 -40 15 -37 0 -39 2 -45 34 l-7 34 -154
7 c-122 6 -154 10 -154 21 0 10 -12 14 -40 14 -22 0 -40 5 -40 10 0 6 -18 10
-40 10 -29 0 -40 4 -40 15 0 11 -11 15 -40 15 -29 0 -40 4 -40 15 0 11 -12 15
-45 15 -37 0 -45 3 -45 19 0 17 -13 19 -155 26 -122 6 -155 10 -155 21 0 11
-18 14 -80 14 l-80 0 0 -1030 0 -1030 19200 0 19200 0 0 2940 c0 1815 -4 2982
-10 3048 -19 205 -37 279 -55 221 -7 -21 -7 -21 -23 3 -9 12 -16 24 -14 26 7
7 -50 102 -59 96 -13 -7 -71 45 -63 58 3 4 0 8 -5 8 -6 0 -11 -7 -11 -16 0
-13 -3 -14 -15 -4 -8 7 -13 16 -10 20 8 13 -28 50 -52 55 -30 5 -63 24 -44 25
20 0 -28 40 -49 40 -9 0 -31 21 -48 48 -56 83 -67 95 -98 94 -16 0 -40 9 -53
19 -13 10 -27 16 -32 13 -5 -3 -17 9 -27 25 -20 33 -84 81 -107 81 -8 0 -17 5
-20 10 -13 21 -86 50 -125 50 -33 0 -40 3 -40 20 0 17 -7 20 -40 20 -29 0 -40
4 -40 15 0 11 -11 15 -40 15 -35 0 -40 3 -40 24 0 24 0 24 -160 31 -160 7
-160 7 -160 31 0 23 -2 24 -80 24 -47 0 -80 4 -80 10 0 6 -100 10 -280 10
-180 0 -280 -4 -280 -10z m477 -206 c-3 -3 -12 -4 -19 -1 -8 3 -5 6 6 6 11 1
17 -2 13 -5z m-400 -10 c-3 -3 -12 -4 -19 -1 -8 3 -5 6 6 6 11 1 17 -2 13 -5z
m320 -10 c-3 -3 -12 -4 -19 -1 -8 3 -5 6 6 6 11 1 17 -2 13 -5z m220 -30 c-3
-3 -12 -4 -19 -1 -8 3 -5 6 6 6 11 1 17 -2 13 -5z m-930 -10 c-3 -3 -12 -4
-19 -1 -8 3 -5 6 6 6 11 1 17 -2 13 -5z m-64 -11 c-7 -2 -19 -2 -25 0 -7 3 -2
5 12 5 14 0 19 -2 13 -5z m1234 -29 c-3 -3 -12 -4 -19 -1 -8 3 -5 6 6 6 11 1
17 -2 13 -5z m-1470 -30 c-3 -3 -12 -4 -19 -1 -8 3 -5 6 6 6 11 1 17 -2 13 -5z
m-110 -30 c-3 -3 -12 -4 -19 -1 -8 3 -5 6 6 6 11 1 17 -2 13 -5z m-70 -20 c-3
-3 -12 -4 -19 -1 -8 3 -5 6 6 6 11 1 17 -2 13 -5z m-197 -74 c-8 -5 -22 -9
-30 -9 -10 0 -8 3 5 9 27 12 43 12 25 0z m-120 -50 c0 -5 -5 -10 -11 -10 -5 0
-7 5 -4 10 3 6 8 10 11 10 2 0 4 -4 4 -10z m-150 -74 c0 -2 -7 -7 -16 -10 -8
-3 -12 -2 -9 4 6 10 25 14 25 6z m-55 -26 c-3 -5 -12 -10 -18 -10 -7 0 -6 4 3
10 19 12 23 12 15 0z m-100 -58 c-3 -3 -11 0 -18 7 -9 10 -8 11 6 5 10 -3 15
-9 12 -12z m-188 -121 c-14 -9 -40 -27 -59 -40 l-33 -24 35 36 c19 20 41 37
48 37 6 0 12 5 12 11 0 5 5 7 11 3 7 -4 1 -13 -14 -23z m-107 -71 c0 -5 -5
-10 -11 -10 -5 0 -7 5 -4 10 3 6 8 10 11 10 2 0 4 -4 4 -10z m-260 -140 c0 -5
-2 -10 -4 -10 -3 0 -8 5 -11 10 -3 6 -1 10 4 10 6 0 11 -4 11 -10z m-250 -59
c0 -6 -4 -13 -10 -16 -5 -3 -10 1 -10 9 0 9 5 16 10 16 6 0 10 -4 10 -9z m205
-51 c-3 -5 -10 -10 -16 -10 -5 0 -9 5 -9 10 0 6 7 10 16 10 8 0 12 -4 9 -10z
m-277 -32 c-6 -18 -28 -21 -28 -4 0 9 7 16 16 16 9 0 14 -5 12 -12z m-88 -77
c0 -6 -4 -13 -10 -16 -5 -3 -10 1 -10 9 0 9 5 16 10 16 6 0 10 -4 10 -9z m200
-41 c0 -5 -5 -10 -11 -10 -5 0 -7 5 -4 10 3 6 8 10 11 10 2 0 4 -4 4 -10z
m-48 -49 c-19 -20 -31 -18 -14 2 7 8 9 17 5 21 -4 4 0 4 9 1 15 -6 15 -8 0
-24z m-32 -31 c0 -5 -5 -10 -11 -10 -5 0 -7 5 -4 10 3 6 8 10 11 10 2 0 4 -4
4 -10z m-47 -50 c-10 -11 -19 -20 -21 -20 -1 0 2 9 8 20 6 11 15 20 20 20 6 0
2 -9 -7 -20z m-53 -53 c0 -2 -12 -14 -27 -28 l-28 -24 24 28 c23 25 31 32 31
24z m-90 -101 c0 -2 -7 -9 -15 -16 -13 -11 -14 -10 -9 4 5 14 24 23 24 12z
m-82 -91 c-12 -14 -23 -25 -25 -25 -2 0 4 11 13 25 9 14 20 25 25 25 5 0 -1
-11 -13 -25z m-68 -74 c0 -5 -7 -12 -16 -15 -14 -5 -15 -4 -4 9 14 17 20 19
20 6z m-90 -111 c0 -5 -5 -10 -11 -10 -5 0 -7 5 -4 10 3 6 8 10 11 10 2 0 4
-4 4 -10z m-67 -75 c-3 -9 -8 -14 -10 -11 -3 3 -2 9 2 15 9 16 15 13 8 -4z
m-33 -46 c-7 -11 -14 -18 -17 -15 -3 3 0 12 7 21 18 21 23 19 10 -6z m-62 -79
c-7 -10 -14 -17 -17 -15 -4 4 18 35 25 35 2 0 -1 -9 -8 -20z m-46 -52 c-7 -7
-12 -8 -12 -2 0 14 12 26 19 19 2 -3 -1 -11 -7 -17z m-34 -48 c-22 -30 -35
-41 -22 -17 9 16 36 47 41 47 2 0 -6 -13 -19 -30z m-142 -178 c-17 -16 -18
-16 -5 5 7 12 15 20 18 17 3 -2 -3 -12 -13 -22z m-146 -195 c0 -2 -10 -12 -21
-23 -22 -19 -22 -19 -8 4 12 19 29 30 29 19z m-85 -88 c11 -16 1 -19 -13 -3
-7 8 -8 14 -3 14 5 0 13 -5 16 -11z m-45 -80 c-7 -11 -14 -18 -17 -15 -3 3 0
12 7 21 18 21 23 19 10 -6z m-52 -63 c-13 -19 -24 -33 -26 -31 -5 4 37 65 44
65 2 0 -6 -15 -18 -34z m-58 -75 c-15 -30 -30 -35 -17 -6 7 14 16 25 20 25 4
0 3 -9 -3 -19z m-80 -98 c-1 -5 -10 -19 -21 -32 -15 -18 -23 -21 -31 -13 -9 9
-9 15 1 25 10 10 11 8 6 -8 -5 -16 -2 -14 17 7 25 29 28 32 28 21z m-131 -160
c-26 -33 -40 -45 -46 -40 -3 3 8 17 23 31 34 30 42 33 23 9z m-59 -75 c-8 -7
-20 -20 -28 -28 -11 -13 -12 -12 -3 7 9 18 23 29 41 32 2 1 -2 -5 -10 -11z
m-80 -92 c0 -2 -7 -9 -15 -16 -13 -11 -14 -10 -9 4 5 14 24 23 24 12z m-40
-40 c0 -3 -4 -8 -10 -11 -5 -3 -10 -1 -10 4 0 6 5 11 10 11 6 0 10 -2 10 -4z
m-36 -41 c-4 -8 -11 -15 -16 -15 -6 0 -5 6 2 15 7 8 14 15 16 15 2 0 1 -7 -2
-15z m-44 -39 c0 -3 -4 -8 -10 -11 -5 -3 -10 -1 -10 4 0 6 5 11 10 11 6 0 10
-2 10 -4z m-440 -190 c0 -2 -7 -9 -15 -16 -12 -10 -15 -10 -15 4 0 9 7 16 15
16 8 0 15 -2 15 -4z m170 -26 c0 -5 -7 -10 -16 -10 -8 0 -12 5 -9 10 3 6 10
10 16 10 5 0 9 -4 9 -10z m-260 -60 c0 -5 -4 -10 -10 -10 -5 0 -10 5 -10 10 0
6 5 10 10 10 6 0 10 -4 10 -10z m210 -44 c0 -3 -4 -8 -10 -11 -5 -3 -10 -1
-10 4 0 6 5 11 10 11 6 0 10 -2 10 -4z m-295 -36 c-3 -5 -10 -10 -16 -10 -5 0
-9 5 -9 10 0 6 7 10 16 10 8 0 12 -4 9 -10z m245 -15 c-13 -14 -26 -22 -29
-19 -3 3 5 14 19 24 34 27 38 25 10 -5z m-60 -48 c0 -2 -10 -13 -23 -25 -21
-20 -23 -20 -23 -3 0 10 6 17 12 14 7 -2 15 0 19 6 6 10 15 15 15 8z m-220
-180 c0 -2 -15 -13 -32 -26 l-33 -22 28 25 c26 24 37 31 37 23z m-7090 -77
c-8 -5 -22 -9 -30 -9 -10 0 -8 3 5 9 27 12 43 12 25 0z m408 3 c-15 -2 -42 -2
-60 0 -18 2 -6 4 27 4 33 0 48 -2 33 -4z m670 0 c-21 -2 -55 -2 -75 0 -21 2
-4 4 37 4 41 0 58 -2 38 -4z m505 0 c-7 -2 -19 -2 -25 0 -7 3 -2 5 12 5 14 0
19 -2 13 -5z m5416 4 c-2 -2 -17 -11 -34 -21 l-30 -17 24 20 c13 12 28 21 34
21 6 0 8 -1 6 -3z m-6721 -14 c-10 -2 -28 -2 -40 0 -13 2 -5 4 17 4 22 1 32
-1 23 -4z m920 0 c-10 -2 -28 -2 -40 0 -13 2 -5 4 17 4 22 1 32 -1 23 -4z
m-1028 -13 c-33 -9 -179 -21 -161 -13 8 3 9 8 3 12 -5 3 33 6 86 7 54 0 86 -2
72 -6z m1118 3 c-10 -2 -26 -2 -35 0 -10 3 -2 5 17 5 19 0 27 -2 18 -5z m191
-19 c3 -4 -19 -4 -49 0 -30 3 -70 6 -87 6 -18 0 -33 4 -33 8 0 9 160 -4 169
-14z m104 9 c-7 -2 -19 -2 -25 0 -7 3 -2 5 12 5 14 0 19 -2 13 -5z m-50 -20
c-7 -2 -21 -2 -30 0 -10 3 -4 5 12 5 17 0 24 -2 18 -5z m-1608 -13 c-27 -12
-43 -12 -25 0 8 5 22 9 30 9 10 0 8 -3 -5 -9z m1765 -11 c24 -5 14 -6 -30 -2
-36 3 -74 9 -85 14 -23 9 63 1 115 -12z m5209 8 c-2 -1 -13 -9 -24 -17 -19
-14 -19 -14 -6 3 7 9 18 17 24 17 6 0 8 -1 6 -3z m-7036 -14 c-7 -2 -19 -2
-25 0 -7 3 -2 5 12 5 14 0 19 -2 13 -5z m-97 -19 c-32 -8 -79 -21 -104 -29
-38 -13 -66 -14 -51 -1 9 7 165 44 189 44 14 0 -2 -6 -34 -14z m2012 9 c-10
-2 -26 -2 -35 0 -10 3 -2 5 17 5 19 0 27 -2 18 -5z m289 1 c-3 -3 -12 -4 -19
-1 -8 3 -5 6 6 6 11 1 17 -2 13 -5z m-2427 -14 c-19 -13 -30 -13 -30 0 0 6 10
10 23 10 18 0 19 -2 7 -10z m2200 0 c18 -12 2 -12 -25 0 -13 6 -15 9 -5 9 8 0
22 -4 30 -9z m143 3 c-7 -2 -21 -2 -30 0 -10 3 -4 5 12 5 17 0 24 -2 18 -5z
m72 -34 l20 -8 -20 0 c-11 0 -49 6 -85 14 l-65 14 65 -6 c36 -3 74 -9 85 -14z
m-2652 -26 c-7 -2 -19 -2 -25 0 -7 3 -2 5 12 5 14 0 19 -2 13 -5z m157 3 c0
-11 -125 -45 -133 -37 -5 5 -4 9 4 8 8 0 23 1 34 2 17 1 18 3 5 12 -12 8 -10
9 7 4 13 -3 31 -2 40 4 18 10 43 14 43 7z m2583 -3 c-7 -2 -19 -2 -25 0 -7 3
-2 5 12 5 14 0 19 -2 13 -5z m93 0 c-8 -9 71 -30 147 -39 31 -4 60 -11 63 -16
6 -10 -33 -5 -131 17 -33 8 -80 17 -105 21 l-45 8 35 7 c19 3 37 7 39 8 2 0 1
-2 -3 -6z m113 -9 c10 -9 -35 -3 -49 6 -11 8 -7 9 15 4 17 -4 32 -8 34 -10z
m-2968 -52 c-14 -9 -50 -26 -80 -38 -31 -12 -64 -25 -73 -29 -10 -4 -18 -3
-18 3 0 5 10 12 23 15 43 10 132 47 135 57 2 6 11 10 20 9 13 0 11 -4 -7 -17z
m3146 -18 c-3 -3 -12 -4 -19 -1 -8 3 -5 6 6 6 11 1 17 -2 13 -5z m88 -15 c5
-7 -5 -8 -32 -3 -51 9 -54 14 -10 14 20 0 39 -5 42 -11z m105 1 c12 -8 11 -10
-7 -10 -13 0 -23 5 -23 10 0 13 11 13 30 0z m-14022 -17 c-10 -2 -28 -2 -40 0
-13 2 -5 4 17 4 22 1 32 -1 23 -4z m320 0 c-10 -2 -26 -2 -35 0 -10 3 -2 5 17
5 19 0 27 -2 18 -5z m13740 -15 c60 -18 29 -17 -48 2 -51 13 -61 18 -30 14 25
-3 60 -10 78 -16z m-14168 -8 c0 -5 -9 -10 -20 -10 -11 0 -20 5 -20 10 0 6 9
10 20 10 11 0 20 -4 20 -10z m160 6 c0 -9 -30 -14 -35 -6 -4 6 3 10 14 10 12
0 21 -2 21 -4z m103 -3 c-13 -2 -33 -2 -45 0 -13 2 -3 4 22 4 25 0 35 -2 23
-4z m257 -3 c0 -5 -7 -10 -16 -10 -8 0 -12 5 -9 10 3 6 10 10 16 10 5 0 9 -4
9 -10z m-447 -7 c-7 -2 -19 -2 -25 0 -7 3 -2 5 12 5 14 0 19 -2 13 -5z m360 0
c-7 -2 -21 -2 -30 0 -10 3 -4 5 12 5 17 0 24 -2 18 -5z m172 -3 c3 -5 -3 -10
-15 -10 -12 0 -18 5 -15 10 3 6 10 10 15 10 5 0 12 -4 15 -10z m-780 -11 c-22
-4 -56 -7 -75 -7 -32 1 -31 2 10 8 25 4 59 7 75 7 25 1 23 -1 -10 -8z m828 4
c-7 -2 -19 -2 -25 0 -7 3 -2 5 12 5 14 0 19 -2 13 -5z m105 -10 c-10 -2 -28
-2 -40 0 -13 2 -5 4 17 4 22 1 32 -1 23 -4z m9771 -24 c-56 -29 -89 -36 -89
-19 0 5 6 7 14 4 16 -6 79 23 72 34 -2 4 10 8 27 8 28 1 26 -1 -24 -27z m3758
25 c-3 -3 -12 -4 -19 -1 -8 3 -5 6 6 6 11 1 17 -2 13 -5z m-15020 -10 c-3 -3
-12 -4 -19 -1 -8 3 -5 6 6 6 11 1 17 -2 13 -5z m308 -9 c-100 -15 -141 -18
-133 -10 8 8 118 23 173 23 39 -1 31 -3 -40 -13z m1273 8 c-10 -2 -26 -2 -35
0 -10 3 -2 5 17 5 19 0 27 -2 18 -5z m13495 0 c-7 -2 -19 -2 -25 0 -7 3 -2 5
12 5 14 0 19 -2 13 -5z m-14950 -10 c-7 -2 -21 -2 -30 0 -10 3 -4 5 12 5 17 0
24 -2 18 -5z m1542 -3 c25 -11 -1 -11 -35 0 -20 6 -21 8 -5 8 11 0 29 -3 40
-8z m121 1 c-4 -5 0 -12 6 -14 7 -3 -2 -6 -19 -6 -37 -1 -45 15 -10 22 12 2
23 5 25 6 2 0 1 -3 -2 -8z m13374 -2 c11 -7 4 -8 -25 -3 -50 8 -58 14 -19 14
16 0 36 -5 44 -11z m3355 1 c3 -5 2 -10 -4 -10 -5 0 -13 5 -16 10 -3 6 -2 10
4 10 5 0 13 -4 16 -10z m-3200 -37 c19 -14 19 -15 -5 -7 -14 4 -50 13 -80 20
l-55 13 60 -6 c33 -3 69 -12 80 -20z m-15247 10 c-10 -2 -26 -2 -35 0 -10 3
-2 5 17 5 19 0 27 -2 18 -5z m-58 -7 c0 -2 -9 -6 -20 -9 -11 -3 -20 -1 -20 4
0 5 9 9 20 9 11 0 20 -2 20 -4z m-93 -22 c-3 -3 -12 -4 -19 -1 -8 3 -5 6 6 6
11 1 17 -2 13 -5z m2076 -1 c-7 -2 -21 -2 -30 0 -10 3 -4 5 12 5 17 0 24 -2
18 -5z m72 -3 c-11 -5 -29 -8 -40 -8 -16 0 -15 2 5 8 34 11 60 11 35 0z m8992
4 c-3 -3 -12 -4 -19 -1 -8 3 -5 6 6 6 11 1 17 -2 13 -5z m83 -4 c-33 -23 -50
-30 -50 -22 0 5 10 14 23 20 28 14 47 15 27 2z m4280 0 c20 -6 21 -8 5 -8 -11
0 -33 4 -50 8 -27 7 -27 8 -5 8 14 0 36 -4 50 -8z m-15580 -4 c0 -6 -102 -27
-107 -22 -3 2 15 9 39 14 51 12 68 14 68 8z m2295 -6 c10 -16 -17 -21 -50 -10
-28 9 -27 9 10 5 29 -4 36 -3 25 4 -9 7 -10 11 -3 11 6 0 15 -5 18 -10z
m16240 0 c-3 -5 -12 -10 -18 -10 -7 0 -6 4 3 10 19 12 23 12 15 0z m-16086
-16 c2 -2 2 -7 -1 -10 -4 -3 -19 2 -35 11 l-28 16 30 -6 c16 -4 32 -9 34 -11z
m8751 12 c0 -2 -7 -7 -16 -10 -8 -3 -12 -2 -9 4 6 10 25 14 25 6z m4524 -17
c11 -10 -59 0 -89 12 -12 5 -1 6 30 3 28 -4 54 -10 59 -15z m-4486 -4 c-2 -1
-14 -8 -28 -15 -25 -13 -25 -13 -6 8 10 12 23 19 28 16 5 -3 8 -7 6 -9z
m-11378 1 c0 -2 -11 -6 -25 -8 -13 -3 -22 -1 -19 3 5 9 44 13 44 5z m2477 -2
c-3 -3 -12 -4 -19 -1 -8 3 -5 6 6 6 11 1 17 -2 13 -5z m48 -4 c3 -5 1 -10 -4
-10 -6 0 -11 5 -11 10 0 6 2 10 4 10 3 0 8 -4 11 -10z m13400 0 c3 -5 -1 -10
-9 -10 -8 0 -18 5 -21 10 -3 6 1 10 9 10 8 0 18 -4 21 -10z m-16005 -10 c0 -5
-12 -10 -27 -9 l-28 1 25 8 c14 4 26 8 28 9 1 1 2 -3 2 -9z m2647 -16 c-3 -3
-12 -4 -19 -1 -8 3 -5 6 6 6 11 1 17 -2 13 -5z m8753 1 c0 -5 -124 -75 -133
-75 -4 0 -7 5 -7 10 0 6 8 10 18 10 9 0 40 14 67 30 53 32 55 32 55 25z m4703
-2 c-7 -2 -19 -2 -25 0 -7 3 -2 5 12 5 14 0 19 -2 13 -5z m-16186 -9 c-3 -3
-12 -4 -19 -1 -8 3 -5 6 6 6 11 1 17 -2 13 -5z m2886 -1 c-7 -2 -19 -2 -25 0
-7 3 -2 5 12 5 14 0 19 -2 13 -5z m74 1 c-3 -3 -12 -4 -19 -1 -8 3 -5 6 6 6
11 1 17 -2 13 -5z m13280 0 c-3 -3 -12 -4 -19 -1 -8 3 -5 6 6 6 11 1 17 -2 13
-5z m2393 -4 c-8 -5 -19 -10 -25 -10 -5 0 -3 5 5 10 8 5 20 10 25 10 6 0 3 -5
-5 -10z m-18720 -15 c-30 -7 -57 -12 -59 -10 -5 6 61 23 89 23 14 0 0 -6 -30
-13z m2975 -10 c22 -7 55 -16 73 -20 17 -4 32 -10 32 -15 0 -5 -12 -4 -27 1
-16 5 -64 20 -108 34 -44 14 -64 22 -45 19 19 -4 53 -12 75 -19z m13408 18
c-7 -2 -21 -2 -30 0 -10 3 -4 5 12 5 17 0 24 -2 18 -5z m294 1 c-3 -3 -12 -4
-19 -1 -8 3 -5 6 6 6 11 1 17 -2 13 -5z m-129 -26 c30 -5 52 -11 50 -13 -5 -6
-179 23 -187 30 -6 6 55 -1 137 -17z m2082 7 c-19 -7 -44 -13 -55 -13 -11 0
-2 5 20 13 53 17 80 17 35 0z m-18722 -16 c-18 -12 -25 -11 -31 4 -4 10 2 13
20 9 18 -3 21 -7 11 -13z m-67 -14 c-42 -19 -50 -19 -25 0 10 8 28 14 39 14
14 0 10 -4 -14 -14z m16854 -5 c25 -11 -1 -11 -35 0 -20 6 -21 8 -5 8 11 0 29
-3 40 -8z m1778 -7 c-7 -2 -19 -2 -25 0 -7 3 -2 5 12 5 14 0 19 -2 13 -5z
m-18747 -25 c-52 -15 -74 -17 -90 -9 -20 10 -19 10 4 5 14 -2 45 2 70 10 25 8
54 14 65 14 11 0 -11 -9 -49 -20z m3455 2 c35 -12 80 -26 99 -32 19 -6 40 -17
48 -24 17 -18 7 -18 -26 0 -15 8 -70 28 -122 45 -52 16 -88 30 -79 31 8 0 44
-9 80 -20z m8249 16 c0 -2 -7 -7 -16 -10 -8 -3 -12 -2 -9 4 6 10 25 14 25 6z
m5358 -3 c-10 -2 -26 -2 -35 0 -10 3 -2 5 17 5 19 0 27 -2 18 -5z m-5414 -30
c-10 -8 -28 -19 -39 -24 -15 -8 -14 -5 4 9 13 11 21 24 17 30 -4 6 2 8 15 5
21 -6 21 -7 3 -20z m5489 20 c-7 -2 -21 -2 -30 0 -10 3 -4 5 12 5 17 0 24 -2
18 -5z m1514 1 c-3 -3 -12 -4 -19 -1 -8 3 -5 6 6 6 11 1 17 -2 13 -5z m-7042
-14 c3 -5 1 -10 -4 -10 -6 0 -11 5 -11 10 0 6 2 10 4 10 3 0 8 -4 11 -10z
m5623 3 c-10 -2 -28 -2 -40 0 -13 2 -5 4 17 4 22 1 32 -1 23 -4z m1337 -3
c-11 -5 -29 -8 -40 -8 -16 0 -15 2 5 8 34 11 60 11 35 0z m-982 -7 c-7 -2 -19
-2 -25 0 -7 3 -2 5 12 5 14 0 19 -2 13 -5z m680 0 c-7 -2 -19 -2 -25 0 -7 3
-2 5 12 5 14 0 19 -2 13 -5z m-18373 -8 c0 -8 -52 -26 -58 -20 -3 2 6 9 19 14
28 11 39 13 39 6z m17493 -2 c-13 -2 -33 -2 -45 0 -13 2 -3 4 22 4 25 0 35 -2
23 -4z m1050 0 c-7 -2 -21 -2 -30 0 -10 3 -4 5 12 5 17 0 24 -2 18 -5z m-925
-10 c-10 -2 -28 -2 -40 0 -13 2 -5 4 17 4 22 1 32 -1 23 -4z m840 0 c-10 -2
-28 -2 -40 0 -13 2 -5 4 17 4 22 1 32 -1 23 -4z m-85 -10 c-7 -2 -19 -2 -25 0
-7 3 -2 5 12 5 14 0 19 -2 13 -5z m-14558 -23 c3 -6 -1 -7 -9 -4 -18 7 -21 14
-7 14 6 0 13 -4 16 -10z m7839 -15 c-10 -8 -23 -14 -29 -14 -5 -1 1 8 15 19
14 10 27 17 29 14 3 -2 -4 -11 -15 -19z m-11799 8 c-11 -2 -32 -8 -47 -13 -16
-5 -28 -5 -28 0 0 9 31 17 70 17 19 1 20 0 5 -4z m3965 -19 c38 -20 1 -15 -50
7 -43 18 -43 19 -10 13 19 -4 46 -12 60 -20z m104 10 c23 -9 20 -23 -4 -17
-11 3 -20 9 -20 14 0 11 3 11 24 3z m7676 -24 c0 -5 -5 -10 -11 -10 -5 0 -7 5
-4 10 3 6 8 10 11 10 2 0 4 -4 4 -10z m-11873 -6 c-3 -3 -12 -4 -19 -1 -8 3
-5 6 6 6 11 1 17 -2 13 -5z m4167 -3 c4 -5 41 -23 84 -39 73 -28 158 -72 138
-72 -4 0 -25 9 -45 19 -20 11 -67 32 -106 47 -38 16 -81 34 -95 41 -24 12 -24
13 -3 13 12 0 24 -4 27 -9z m-4259 -31 c-27 -12 -43 -12 -25 0 8 5 22 9 30 9
10 0 8 -3 -5 -9z m11920 0 c-3 -5 -12 -10 -18 -10 -7 0 -6 4 3 10 19 12 23 12
15 0z m-55 -4 c0 -3 -4 -8 -10 -11 -5 -3 -10 -1 -10 4 0 6 5 11 10 11 6 0 10
-2 10 -4z m-11923 -12 c-3 -3 -12 -4 -19 -1 -8 3 -5 6 6 6 11 1 17 -2 13 -5z
m11923 -19 c-7 -8 -18 -15 -24 -15 -6 0 -2 7 8 15 25 19 32 19 16 0z m-11990
-5 c-8 -5 -22 -10 -30 -10 -13 0 -13 1 0 10 8 5 22 10 30 10 13 0 13 -1 0 -10z
m11838 -55 c-3 -3 -9 2 -12 12 -6 14 -5 15 5 6 7 -7 10 -15 7 -18z m97 15 c-3
-5 -11 -10 -16 -10 -6 0 -7 5 -4 10 3 6 11 10 16 10 6 0 7 -4 4 -10z m-12058
-6 c-3 -3 -12 -4 -19 -1 -8 3 -5 6 6 6 11 1 17 -2 13 -5z m4796 -10 c22 -12
32 -13 35 -5 2 6 8 8 14 5 6 -4 5 -10 -3 -15 -11 -7 -10 -9 3 -9 9 0 20 -4 23
-10 7 -11 -13 -4 -85 29 -25 11 -39 21 -32 21 7 0 27 -7 45 -16z m-4853 -9
c-14 -8 -32 -14 -40 -14 -8 0 -1 6 15 14 40 18 57 18 25 0z m12068 -6 c-9 -5
-23 -15 -30 -22 -7 -7 -35 -28 -63 -47 -27 -18 -52 -36 -55 -39 -3 -3 -24 -21
-47 -38 -42 -33 -63 -41 -63 -23 0 5 7 7 15 4 8 -4 15 -2 15 4 0 5 15 19 33
31 59 38 132 94 140 108 4 7 14 13 21 13 8 0 19 7 26 15 7 9 16 13 19 9 3 -3
-2 -10 -11 -15z m-68 -9 c0 -5 -5 -10 -11 -10 -5 0 -7 5 -4 10 3 6 8 10 11 10
2 0 4 -4 4 -10z m-12063 -6 c-3 -3 -12 -4 -19 -1 -8 3 -5 6 6 6 11 1 17 -2 13
-5z m5058 -36 c21 -9 28 -9 34 1 6 9 11 9 15 3 11 -18 -32 -24 -61 -8 -33 18
-25 21 12 4z m-5244 -33 c-18 -8 -36 -15 -40 -15 -13 1 45 29 59 29 8 0 0 -6
-19 -14z m5329 -5 c18 -12 2 -12 -25 0 -13 6 -15 9 -5 9 8 0 22 -4 30 -9z
m-5390 -14 c0 -3 -4 -8 -10 -11 -5 -3 -10 -1 -10 4 0 6 5 11 10 11 6 0 10 -2
10 -4z m5503 -21 c15 4 18 3 9 -3 -10 -7 -5 -13 21 -26 19 -9 38 -16 42 -16 4
0 18 -9 32 -20 35 -27 26 -25 -43 9 -33 15 -74 34 -91 42 -18 8 -33 17 -33 22
0 4 9 3 20 -3 12 -6 31 -8 43 -5z m78 -14 c-8 -5 -20 -7 -28 -4 -21 8 -15 13
15 13 20 0 23 -3 13 -9z m-5676 -11 c-27 -12 -43 -12 -25 0 8 5 22 9 30 9 10
0 8 -3 -5 -9z m-59 -19 c-3 -5 -16 -11 -28 -14 -22 -6 -22 -5 -4 8 22 17 40
20 32 6z m12168 -46 c3 -8 1 -15 -3 -15 -5 0 -11 7 -15 15 -3 8 -1 15 3 15 5
0 11 -7 15 -15z m86 11 c0 -3 -35 -31 -77 -62 -43 -32 -84 -62 -91 -67 -7 -6
-15 -8 -18 -5 -3 3 15 17 40 32 25 15 49 32 53 39 7 10 83 67 90 67 2 0 3 -2
3 -4z m-12375 -16 c-3 -5 -12 -10 -18 -10 -7 0 -6 4 3 10 19 12 23 12 15 0z
m-65 -25 c-14 -8 -29 -14 -35 -14 -5 0 1 6 15 14 14 8 30 14 35 14 6 0 -1 -6
-15 -14z m6102 -23 c10 -8 33 -15 50 -15 26 1 29 -1 13 -7 -11 -4 -29 -4 -40
0 -34 14 -85 41 -85 46 0 9 45 -8 62 -24z m6228 18 c0 -5 -5 -10 -11 -10 -5 0
-7 5 -4 10 3 6 8 10 11 10 2 0 4 -4 4 -10z m-12470 -54 c0 -2 -9 -6 -20 -9
-11 -3 -18 -1 -14 4 5 9 34 13 34 5z m6325 -6 c3 -5 1 -10 -4 -10 -6 0 -11 5
-11 10 0 6 2 10 4 10 3 0 8 -4 11 -10z m-6395 -14 c0 -2 -7 -7 -16 -10 -8 -3
-12 -2 -9 4 6 10 25 14 25 6z m6479 -27 c34 -27 13 -23 -34 7 -28 18 -33 23
-15 18 14 -4 36 -15 49 -25z m5980 -2 c-2 -1 -13 -9 -24 -17 -19 -14 -19 -14
-6 3 7 9 18 17 24 17 6 0 8 -1 6 -3z m-12563 -19 c-9 -5 -23 -5 -32 0 -12 6
-7 9 16 9 23 0 28 -3 16 -9z m6704 -23 c-10 -12 -10 -15 0 -15 8 0 22 -8 32
-17 17 -15 20 -15 28 -3 6 9 10 10 10 3 0 -23 -18 -23 -58 0 -29 16 -36 25
-28 34 16 18 31 16 16 -2z m5794 -10 c-23 -17 -31 -18 -39 -5 -3 5 0 7 8 4 8
-3 20 2 27 11 7 8 15 13 18 10 3 -3 -3 -12 -14 -20z m-12569 5 c-27 -12 -43
-12 -25 0 8 5 22 9 30 9 10 0 8 -3 -5 -9z m-60 -20 c-3 -5 -12 -10 -18 -10 -7
0 -6 4 3 10 19 12 23 12 15 0z m6935 -24 c0 -2 -7 -7 -16 -10 -8 -3 -12 -2 -9
4 6 10 25 14 25 6z m45 -6 c-3 -5 -12 -10 -18 -10 -7 0 -6 4 3 10 19 12 23 12
15 0z m-7095 -25 c-14 -8 -29 -14 -35 -14 -5 0 1 6 15 14 14 8 30 14 35 14 6
0 -1 -6 -15 -14z m7141 -31 c8 -8 21 -14 27 -14 6 0 14 -4 17 -10 8 -14 -33 2
-76 30 -27 17 -29 20 -9 15 14 -4 32 -14 41 -21z m5463 5 c-10 -12 -32 -30
-49 -42 -19 -12 -13 -4 15 21 47 45 65 56 34 21z m-12657 5 c-3 -3 -12 -4 -19
-1 -8 3 -5 6 6 6 11 1 17 -2 13 -5z m7324 -58 c-9 -11 -6 -15 14 -20 14 -4 25
-11 25 -16 0 -5 -15 -2 -34 7 -27 12 -32 19 -23 29 16 18 33 18 18 0z m49 4
c0 -5 -8 -10 -17 -10 -15 0 -16 2 -3 10 19 12 20 12 20 0z m-7530 -10 c-8 -5
-19 -10 -25 -10 -5 0 -3 5 5 10 8 5 20 10 25 10 6 0 3 -5 -5 -10z m12730 -10
c0 -5 -7 -10 -16 -10 -8 0 -12 5 -9 10 3 6 10 10 16 10 5 0 9 -4 9 -10z
m-12773 -6 c-3 -3 -12 -4 -19 -1 -8 3 -5 6 6 6 11 1 17 -2 13 -5z m12742 -17
c-2 -1 -13 -9 -24 -17 -19 -14 -19 -14 -6 3 7 9 18 17 24 17 6 0 8 -1 6 -3z
m-12819 -17 c-8 -5 -19 -10 -25 -10 -5 0 -3 5 5 10 8 5 20 10 25 10 6 0 3 -5
-5 -10z m7691 -6 c17 -8 29 -18 26 -20 -3 -3 -20 4 -38 15 -40 25 -31 28 12 5z
m76 10 c-3 -3 -12 -4 -19 -1 -8 3 -5 6 6 6 11 1 17 -2 13 -5z m-7830 -30 c-16
-9 -31 -13 -34 -10 -3 3 5 10 18 15 37 15 47 12 16 -5z m12833 7 c0 -5 -7 -12
-16 -15 -14 -5 -15 -4 -4 9 14 17 20 19 20 6z m-4995 -21 c7 0 15 -6 18 -14 4
-11 0 -11 -26 2 -37 18 -50 28 -24 19 10 -4 25 -7 32 -7z m4950 0 c3 -5 1 -10
-4 -10 -6 0 -11 5 -11 10 0 6 2 10 4 10 3 0 8 -4 11 -10z m-4820 -65 c29 -13
56 -29 60 -35 5 -8 2 -9 -11 -2 -11 6 -48 24 -84 42 -73 35 -47 31 35 -5z
m4785 31 c0 -3 -4 -8 -10 -11 -5 -3 -10 -1 -10 4 0 6 5 11 10 11 6 0 10 -2 10
-4z m-12893 -12 c-3 -3 -12 -4 -19 -1 -8 3 -5 6 6 6 11 1 17 -2 13 -5z m12863
-12 c0 -5 -16 -16 -35 -25 -19 -9 -35 -13 -35 -8 0 5 11 12 25 15 14 4 25 11
25 16 0 6 5 10 10 10 6 0 10 -4 10 -8z m-102 -70 c-13 -9 -26 -20 -29 -25 -4
-5 -18 -1 -33 8 -31 21 -35 30 -5 14 24 -13 75 4 64 21 -3 6 1 7 10 4 13 -6
12 -9 -7 -22z m-12994 -6 c-10 -8 -21 -12 -24 -10 -5 6 21 24 34 24 6 0 1 -6
-10 -14z m8506 -22 c0 -2 -13 2 -30 11 -16 9 -30 18 -30 21 0 2 14 -2 30 -11
17 -9 30 -18 30 -21z m10 26 c0 -5 -2 -10 -4 -10 -3 0 -8 5 -11 10 -3 6 -1 10
4 10 6 0 11 -4 11 -10z m110 -75 c14 -8 21 -14 15 -14 -5 0 -21 6 -35 14 -14
8 -20 14 -15 14 6 0 21 -6 35 -14z m4250 -5 c-8 -6 -24 -16 -35 -22 -20 -11
-20 -11 -1 11 11 11 26 21 35 21 14 0 14 -2 1 -10z m-4195 -28 c-3 -3 -11 0
-18 7 -9 10 -8 11 6 5 10 -3 15 -9 12 -12z m42 -8 c-3 -3 -12 -4 -19 -1 -8 3
-5 6 6 6 11 1 17 -2 13 -5z m4083 -4 c-19 -13 -30 -13 -30 0 0 6 10 10 23 10
18 0 19 -2 7 -10z m-3973 -45 c19 -20 14 -19 -33 6 -33 17 -35 19 -10 14 15
-3 35 -13 43 -20z m3943 21 c0 -2 -7 -7 -16 -10 -8 -3 -12 -2 -9 4 6 10 25 14
25 6z m-50 -30 c0 -2 -7 -6 -15 -10 -8 -3 -15 -1 -15 4 0 6 7 10 15 10 8 0 15
-2 15 -4z m-3825 -16 c3 -5 -1 -10 -9 -10 -8 0 -18 5 -21 10 -3 6 1 10 9 10 8
0 18 -4 21 -10z m90 -40 c13 -5 14 -9 5 -9 -8 0 -24 4 -35 9 -13 5 -14 9 -5 9
8 0 24 -4 35 -9z m3644 6 c-2 -2 -15 -9 -29 -15 -24 -11 -24 -11 -6 3 16 13
49 24 35 12z m-3589 -26 c0 -5 -4 -10 -9 -10 -6 0 -13 5 -16 10 -3 6 1 10 9
10 9 0 16 -4 16 -10z m37 -16 c-3 -3 -12 -4 -19 -1 -8 3 -5 6 6 6 11 1 17 -2
13 -5z m3473 -4 c-8 -5 -19 -10 -25 -10 -5 0 -3 5 5 10 8 5 20 10 25 10 6 0 3
-5 -5 -10z m-3400 -30 c8 -5 11 -10 5 -10 -5 0 -17 5 -25 10 -8 5 -10 10 -5
10 6 0 17 -5 25 -10z m-14340 -10 c0 -5 -16 -10 -35 -10 -19 0 -35 5 -35 10 0
6 16 10 35 10 19 0 35 -4 35 -10z m14408 -9 c9 -5 28 -14 42 -20 24 -10 24
-10 -4 -4 -34 7 -87 33 -68 33 7 0 20 -4 30 -9z m3232 -6 c-14 -8 -32 -14 -40
-14 -8 0 -1 6 15 14 40 18 57 18 25 0z m-3133 -31 c-3 -3 -12 -4 -19 -1 -8 3
-5 6 6 6 11 1 17 -2 13 -5z m43 -14 c0 -5 -4 -10 -9 -10 -6 0 -13 5 -16 10 -3
6 1 10 9 10 9 0 16 -4 16 -10z m197 -16 c-3 -3 -12 -4 -19 -1 -8 3 -5 6 6 6
11 1 17 -2 13 -5z m2758 -4 c-27 -12 -43 -12 -25 0 8 5 22 9 30 9 10 0 8 -3
-5 -9z m-2865 -10 c13 -9 13 -10 0 -10 -8 0 -22 5 -30 10 -13 9 -13 10 0 10 8
0 22 -5 30 -10z m-10540 -10 c-8 -5 -19 -10 -25 -10 -5 0 -3 5 5 10 8 5 20 10
25 10 6 0 3 -5 -5 -10z m10687 4 c-3 -3 -12 -4 -19 -1 -8 3 -5 6 6 6 11 1 17
-2 13 -5z m2670 -1 c-4 -3 -26 -15 -49 -25 -25 -11 -37 -14 -30 -6 7 7 27 18
45 25 39 14 42 15 34 6z m-2737 -19 l35 -14 -35 5 c-19 3 -39 10 -44 15 -14
14 2 12 44 -6z m70 -24 c0 -5 -7 -7 -15 -4 -8 4 -15 8 -15 10 0 2 7 4 15 4 8
0 15 -4 15 -10z m147 -16 c-3 -3 -12 -4 -19 -1 -8 3 -5 6 6 6 11 1 17 -2 13
-5z m-42 -14 c13 -5 14 -9 5 -9 -8 0 -24 4 -35 9 -13 5 -14 9 -5 9 8 0 24 -4
35 -9z m2320 0 c-3 -5 -12 -10 -18 -10 -7 0 -6 4 3 10 19 12 23 12 15 0z
m-13398 -16 c-3 -3 -12 -4 -19 -1 -8 3 -5 6 6 6 11 1 17 -2 13 -5z m11197 -15
c21 -6 36 -12 34 -14 -5 -5 -121 25 -128 32 -5 6 23 0 94 -18z m2161 -9 c-3
-5 -10 -10 -16 -10 -5 0 -9 5 -9 10 0 6 7 10 16 10 8 0 12 -4 9 -10z m-1998
-36 c-3 -3 -12 -4 -19 -1 -8 3 -5 6 6 6 11 1 17 -2 13 -5z m1873 -3 c-8 -5
-33 -12 -55 -15 l-40 -6 40 14 c48 17 79 20 55 7z m-1817 -8 c-7 -2 -21 -2
-30 0 -10 3 -4 5 12 5 17 0 24 -2 18 -5z m117 -19 c30 -4 66 -13 80 -21 16 -9
18 -12 5 -8 -11 3 -55 12 -99 20 -43 8 -81 17 -85 21 -3 4 5 4 19 1 14 -3 50
-9 80 -13z m1598 1 c-2 -3 -25 -9 -49 -14 -24 -5 -55 -12 -69 -16 -23 -6 -24
-6 -5 6 24 15 136 37 123 24z m-1261 -41 c-3 -3 -12 -4 -19 -1 -8 3 -5 6 6 6
11 1 17 -2 13 -5z m1096 -1 c-7 -2 -19 -2 -25 0 -7 3 -2 5 12 5 14 0 19 -2 13
-5z m-1180 -10 c-7 -2 -19 -2 -25 0 -7 3 -2 5 12 5 14 0 19 -2 13 -5z m194 1
c-3 -3 -12 -4 -19 -1 -8 3 -5 6 6 6 11 1 17 -2 13 -5z m860 -10 c-45 -7 -88
-9 -100 -5 -15 6 -3 9 42 10 36 1 67 3 69 6 3 3 19 4 36 4 17 -1 -4 -7 -47
-15z m-969 -1 c-10 -2 -26 -2 -35 0 -10 3 -2 5 17 5 19 0 27 -2 18 -5z m90
-10 c-10 -2 -28 -2 -40 0 -13 2 -5 4 17 4 22 1 32 -1 23 -4z m152 -12 c0 -5
-21 -6 -47 -4 -71 7 -75 11 -10 12 31 1 57 -3 57 -8z m585 4 c-5 -2 -50 -5
-100 -8 -49 -2 -79 -1 -65 3 24 8 186 12 165 5z m-452 -12 c-18 -2 -48 -2 -65
0 -18 2 -4 4 32 4 36 0 50 -2 33 -4z m115 0 c-10 -2 -26 -2 -35 0 -10 3 -2 5
17 5 19 0 27 -2 18 -5z m-13445 -70 c-7 -2 -19 -2 -25 0 -7 3 -2 5 12 5 14 0
19 -2 13 -5z m-1526 -49 c-3 -3 -12 -4 -19 -1 -8 3 -5 6 6 6 11 1 17 -2 13 -5z"/>
<path d="M2880 6840 c0 -29 4 -40 15 -40 11 0 15 11 15 40 0 29 -4 40 -15 40
-11 0 -15 -11 -15 -40z"/>
<path d="M2800 6760 c0 -29 4 -40 15 -40 11 0 15 11 15 40 0 29 -4 40 -15 40
-11 0 -15 -11 -15 -40z"/>
<path d="M35025 6730 c-3 -5 -1 -10 4 -10 6 0 11 5 11 10 0 6 -2 10 -4 10 -3
0 -8 -4 -11 -10z"/>
<path d="M2720 6624 c0 -14 3 -14 15 -4 8 7 15 14 15 16 0 2 -7 4 -15 4 -8 0
-15 -7 -15 -16z"/>
<path d="M34705 6571 c-3 -5 -1 -12 5 -16 5 -3 10 1 10 9 0 18 -6 21 -15 7z"/>
<path d="M33665 5690 c-3 -5 -1 -10 4 -10 6 0 11 5 11 10 0 6 -2 10 -4 10 -3
0 -8 -4 -11 -10z"/>
<path d="M7120 1130 c0 -5 16 -10 35 -10 19 0 35 5 35 10 0 6 -16 10 -35 10
-19 0 -35 -4 -35 -10z"/>
</g>
</svg>
